<svg width="172" height="45" viewBox="0 0 172 45" fill="none" xmlns="http://www.w3.org/2000/svg">
<path d="M36.9873 44.5057H8.93078C4.32014 44.5057 0.583496 40.8064 0.583496 36.2419V8.46597C0.583496 3.90143 4.32014 0.202148 8.93078 0.202148H36.9873C41.5979 0.202148 45.3346 3.90143 45.3346 8.46597V36.2419C45.3346 40.8064 41.5979 44.5057 36.9873 44.5057Z" fill="#7782FF"/>
<path d="M31.021 22.7619C31.819 23.7526 32.2243 24.9063 32.2243 26.2104C32.2243 28.129 31.5783 29.6338 30.2863 30.6997C28.9943 31.7656 27.145 32.3174 24.7384 32.3174H14.2251V9.93359H24.485C26.7903 9.93359 28.5637 10.4352 29.8177 11.4258C31.0717 12.4165 31.705 13.8335 31.705 15.6643C31.705 17.0187 31.3377 18.1347 30.6157 19.0376C29.8937 19.9405 28.9437 20.5173 27.7657 20.7932C29.1463 21.1192 30.223 21.7713 31.021 22.7619ZM19.6844 19.0877H23.269C25.169 19.0877 26.119 18.2852 26.119 16.6801C26.119 15.075 25.1437 14.2724 23.2057 14.2724H19.6844V19.0877ZM26.6257 25.458C26.6257 24.6555 26.3597 24.0285 25.8277 23.577C25.2957 23.1256 24.5357 22.8999 23.5604 22.8999H19.6971V27.9284H23.5984C25.6124 27.9159 26.6257 27.1008 26.6257 25.458Z" fill="white"/>
<path d="M71.2632 32.3174L66.3739 23.8655H65.1326V32.3174H59.6606V9.93359H68.9959C70.7819 9.93359 72.3019 10.2346 73.5306 10.849C74.7719 11.4635 75.6965 12.3036 76.3172 13.3695C76.9379 14.4354 77.2419 15.6518 77.2419 17.0312C77.2419 18.6614 76.7859 20.0408 75.8865 21.1819C74.9746 22.323 73.6699 23.1005 71.9346 23.5269L77.3052 32.3299H71.2632V32.3174ZM65.1326 20.1662H68.5146C69.6039 20.1662 70.4019 19.9279 70.9086 19.4514C71.4152 18.9749 71.6812 18.2726 71.6812 17.3447C71.6812 16.4544 71.4152 15.7647 70.8959 15.2505C70.3766 14.7489 69.5786 14.4856 68.5146 14.4856H65.1326V20.1662Z" fill="#263238"/>
<path d="M101.992 28.2421H93.5185L92.1125 32.3301H86.3618L94.6458 10.1094H100.941L109.225 32.3301H103.411L101.992 28.2421ZM100.586 24.1165L97.7744 15.8903L94.9244 24.1165H100.586Z" fill="#263238"/>
<path d="M139.41 32.3174H133.938L124.792 18.5736V32.3174H119.32V9.93359H124.792L133.938 23.8027V9.93359H139.41V32.3174Z" fill="#263238"/>
<path d="M170.088 26.9254C169.138 28.6182 167.77 29.9475 165.997 30.9005C164.211 31.8535 162.121 32.3301 159.714 32.3301H151.177V9.94629H159.714C162.146 9.94629 164.249 10.4103 166.009 11.3382C167.783 12.2662 169.138 13.5703 170.088 15.2632C171.038 16.9561 171.507 18.8873 171.507 21.0943C171.507 23.2762 171.025 25.2199 170.088 26.9254ZM164.198 25.7967C165.376 24.6807 165.971 23.1007 165.971 21.0817C165.971 19.0503 165.376 17.4828 164.198 16.3667C163.02 15.2507 161.361 14.6864 159.22 14.6864H156.636V27.4771H159.22C161.361 27.4771 163.02 26.9253 164.198 25.7967Z" fill="#263238"/>
</svg>
