<svg width="123" height="50" viewBox="0 0 123 50" fill="none" xmlns="http://www.w3.org/2000/svg">
<path d="M0.833496 31.0348V0.786133H18.8285V31.02H0.833496V31.0348ZM16.6482 23.9975L17.1112 20.6562L15.4386 20.4936L14.9308 23.066C13.8855 23.5835 12.6012 23.8348 11.063 23.8348C8.97233 23.8348 7.31468 23.1843 6.10506 21.8685C4.8805 20.5527 4.28316 18.823 4.28316 16.6645C4.28316 14.5651 4.88051 12.8353 6.06026 11.4752C7.24002 10.115 8.79315 9.43494 10.7196 9.43494C11.7052 9.43494 12.5415 9.55321 13.2135 9.77498C13.8855 9.99674 14.4978 10.2924 15.0802 10.6768L15.573 13.2197L17.2754 13.0571L16.7826 9.71584C16.0658 9.10968 15.2146 8.6218 14.229 8.23741C13.2433 7.86781 12.0188 7.67561 10.5702 7.67561C8.85288 7.67561 7.37445 8.08957 6.13496 8.93227C4.89547 9.77498 3.92478 10.8838 3.23783 12.2587C2.55089 13.6485 2.20741 15.1417 2.20741 16.7384C2.20741 19.2665 2.99889 21.3806 4.58185 23.066C6.16481 24.7515 8.22564 25.5942 10.7793 25.5942C13.2881 25.5942 15.2445 25.0619 16.6482 23.9975Z" fill="#263238"/>
<path d="M24.9365 31.0348V0.786133H32.6721V31.02H24.9365V31.0348ZM25.7579 25.328H31.8657V23.8053H29.7601V6.92161H25.728V8.44439H27.8635V23.8053H25.7579V25.328Z" fill="#263238"/>
<path d="M38.7803 31.0348V0.786133H52.3699V31.02H38.7803V31.0348ZM41.2443 14.3285L40.8113 17.0784L42.3793 17.2706L42.8422 15.2156C43.5142 14.8903 44.2758 14.7277 45.1719 14.7277C46.2471 14.7277 46.9789 14.9938 47.3522 15.5261C47.7255 16.0583 47.9047 16.7532 47.9047 17.6106V18.6751C47.5762 18.6455 47.2327 18.616 46.8594 18.6012C46.486 18.5864 46.1276 18.5716 45.7692 18.5716C44.4252 18.5716 43.1409 18.8082 41.9462 19.2813C40.7515 19.7544 40.1542 20.7449 40.1542 22.2381C40.1542 23.5096 40.5574 24.3818 41.3788 24.8549C42.2001 25.3428 43.0065 25.5794 43.798 25.5794C44.7687 25.5794 45.6049 25.328 46.2919 24.8254C46.9788 24.3227 47.5165 23.7609 47.9047 23.1104V23.1695C47.9346 24.781 48.6664 25.5794 50.1 25.5794C50.6525 25.5794 51.1752 25.4463 51.668 25.1802L51.6381 23.9531C51.3992 24.0566 51.1304 24.1157 50.8317 24.1157C50.1448 24.1157 49.8013 23.687 49.8013 22.8295V17.1671C49.8013 14.5059 48.3677 13.1754 45.5004 13.1754C44.7089 13.1754 43.9622 13.2641 43.2604 13.4415C42.5435 13.6337 41.8715 13.9294 41.2443 14.3285ZM47.8898 20.8632C47.8151 21.8389 47.4119 22.6225 46.6802 23.1843C45.9484 23.7609 45.1719 24.0418 44.3356 24.0418C43.8129 24.0418 43.3052 23.894 42.8273 23.6131C42.3345 23.3322 42.0955 22.7999 42.0955 22.0311C42.0955 21.0997 42.4689 20.5084 43.1857 20.2275C43.9175 19.9466 44.7238 19.8135 45.6348 19.8135C46.038 19.8135 46.4263 19.8283 46.7996 19.8726C47.173 19.9022 47.5463 19.9318 47.8748 19.9466V20.8632H47.8898Z" fill="#263238"/>
<path d="M58.4922 31.0348V0.786133H70.8423V31.02H58.4922V31.0348ZM69.5431 21.8833C69.5431 20.9371 69.2892 20.2422 68.7814 19.7839C68.2737 19.3256 67.6614 19.0152 66.9147 18.8377C66.168 18.6603 65.4363 18.5125 64.7046 18.3942C63.9728 18.2759 63.3456 18.0837 62.8379 17.8324C62.3301 17.5811 62.0762 17.1376 62.0762 16.5018C62.0762 15.8957 62.3152 15.4521 62.808 15.1565C63.3008 14.8608 63.9131 14.7277 64.6747 14.7277C65.5558 14.7277 66.3772 14.9199 67.1388 15.3191L67.4375 17.241L69.0055 17.0488L68.7068 14.2694C68.199 13.9589 67.5868 13.7076 66.855 13.5006C66.1233 13.2936 65.3467 13.1754 64.5104 13.1754C63.4053 13.1754 62.3899 13.4415 61.4491 13.9589C60.5082 14.4764 60.0453 15.3634 60.0453 16.6349C60.0453 17.5663 60.2991 18.2464 60.8069 18.6751C61.3146 19.1186 61.9419 19.4143 62.7035 19.5917C63.4651 19.7691 64.2117 19.917 64.9584 20.0501C65.7051 20.1683 66.3323 20.3753 66.8401 20.6414C67.3478 20.9075 67.6017 21.3659 67.6017 22.0311C67.6017 22.7112 67.2731 23.2139 66.616 23.5391C65.959 23.8644 65.2123 24.027 64.3611 24.027C63.4053 24.027 62.5093 23.8348 61.688 23.4357L61.7627 21.8537L60.2543 21.6911L59.881 24.3966C60.4037 24.7367 61.0906 25.0176 61.9269 25.2393C62.7632 25.4611 63.5995 25.5794 64.4507 25.5794C65.8992 25.5794 67.1089 25.2541 68.0796 24.5888C69.0503 23.9531 69.5431 23.0365 69.5431 21.8833Z" fill="#263238"/>
<path d="M76.9507 31.0348V0.786133H89.3007V31.02H76.9507V31.0348ZM88.0015 21.8833C88.0015 20.9371 87.7476 20.2422 87.2399 19.7839C86.7321 19.3256 86.1199 19.0152 85.3732 18.8377C84.6265 18.6603 83.8948 18.5125 83.163 18.3942C82.4313 18.2759 81.8041 18.0837 81.2963 17.8324C80.7886 17.5811 80.5347 17.1376 80.5347 16.5018C80.5347 15.8957 80.7736 15.4521 81.2664 15.1565C81.7592 14.8608 82.3715 14.7277 83.1331 14.7277C84.0142 14.7277 84.8356 14.9199 85.5972 15.3191L85.8959 17.241L87.4639 17.0488L87.1652 14.2694C86.6575 13.9589 86.0452 13.7076 85.3135 13.5006C84.5817 13.2936 83.8052 13.1754 82.9689 13.1754C81.8638 13.1754 80.8483 13.4415 79.9075 13.9589C78.9667 14.4764 78.5037 15.3634 78.5037 16.6349C78.5037 17.5663 78.7576 18.2464 79.2654 18.6751C79.7731 19.1186 80.4004 19.4143 81.162 19.5917C81.9236 19.7691 82.6702 19.917 83.4169 20.0501C84.1636 20.1683 84.7908 20.3753 85.2985 20.6414C85.8063 20.9075 86.0602 21.3659 86.0602 22.0311C86.0602 22.7112 85.7317 23.2139 85.0746 23.5391C84.4175 23.8644 83.6708 24.027 82.8196 24.027C81.8638 24.027 80.9678 23.8348 80.1464 23.4357L80.2211 21.8537L78.7128 21.6911L78.3395 24.3966C78.8622 24.7367 79.5491 25.0176 80.3854 25.2393C81.2217 25.4611 82.058 25.5794 82.9092 25.5794C84.3577 25.5794 85.5674 25.2541 86.538 24.5888C87.5087 23.9531 88.0015 23.0365 88.0015 21.8833Z" fill="#263238"/>
<path d="M95.4087 31.0348V0.786133H103.548V31.02H95.4087V31.0348ZM96.6034 25.328H102.711V23.8053H100.606V13.4267H96.5586V14.9495H98.7239V23.8053H96.6183V25.328H96.6034ZM98.5149 7.91216V10.3516H100.576V7.91216H98.5149Z" fill="#263238"/>
<path d="M109.655 31.0348V0.786133H122.662V31.02H109.655V31.0348ZM121.497 21.3215L119.869 20.9667C119.511 22.9773 118.421 23.9827 116.629 23.9827C115.434 23.9827 114.523 23.5835 113.896 22.7851C113.269 21.9868 112.955 20.8632 112.955 19.4439C112.955 18.1577 113.239 17.0636 113.791 16.147C114.344 15.2304 115.27 14.7868 116.554 14.7868C117.54 14.7868 118.406 15.0086 119.123 15.4521L119.586 17.4628L121.154 17.2706L120.691 14.4025C120.078 13.9441 119.436 13.6189 118.764 13.4415C118.092 13.2641 117.361 13.1754 116.569 13.1754C114.702 13.1754 113.284 13.8259 112.358 15.1269C111.417 16.4279 110.954 17.9063 110.954 19.5474C110.954 21.4546 111.447 22.9478 112.447 23.9975C113.433 25.0619 114.762 25.5942 116.42 25.5942C118.077 25.5942 119.302 25.1358 120.079 24.234C120.855 23.3174 121.333 22.3564 121.497 21.3215Z" fill="#263238"/>
<path d="M8.61429 47.5488C8.27081 48.1697 7.76305 48.6576 7.10598 48.9976C6.43396 49.3377 5.64247 49.5151 4.71659 49.5151H2.04346V41.1768H4.71659C5.64247 41.1768 6.4489 41.3394 7.10598 41.6794C7.76305 42.0195 8.27081 42.4926 8.61429 43.1283C8.95776 43.764 9.12202 44.4884 9.12202 45.3459C9.12202 46.1886 8.95776 46.9278 8.61429 47.5488ZM7.13583 47.7114C7.71824 47.1496 8.002 46.366 8.002 45.3459C8.002 44.3258 7.71824 43.5422 7.13583 42.9804C6.55342 42.4186 5.71713 42.1377 4.61204 42.1377H3.10378V48.5541H4.61204C5.71713 48.5541 6.55342 48.2732 7.13583 47.7114Z" fill="#FF5196"/>
<path d="M14.6624 42.049V44.9024H17.8583V45.7303H14.6624V48.6428H18.2166V49.5151H13.5723V41.1768H18.2166V42.049H14.6624Z" fill="#FF5196"/>
<path d="M27.6547 48.4505C27.4606 48.7905 27.1768 49.0714 26.7886 49.2784C26.4003 49.4854 25.9224 49.6036 25.34 49.6036C24.7875 49.6036 24.2797 49.5001 23.8466 49.308C23.4136 49.101 23.0701 48.8349 22.8013 48.48C22.5474 48.1252 22.3981 47.726 22.3533 47.2825H23.5181C23.548 47.5191 23.6226 47.7556 23.757 47.9774C23.8914 48.1991 24.1005 48.3913 24.3544 48.5392C24.6083 48.687 24.9219 48.7609 25.2952 48.7609C25.7731 48.7609 26.1465 48.6427 26.4003 48.3765C26.6542 48.1104 26.7886 47.8 26.7886 47.4008C26.7886 47.0607 26.699 46.7798 26.5198 46.5729C26.3406 46.3659 26.1166 46.1885 25.8627 46.0702C25.6088 45.9519 25.2355 45.8189 24.7875 45.671C24.2499 45.4936 23.8317 45.331 23.5032 45.1831C23.1747 45.0353 22.9058 44.7987 22.6818 44.4883C22.4578 44.1778 22.3384 43.7786 22.3384 43.276C22.3384 42.8472 22.4429 42.4628 22.652 42.1228C22.861 41.7975 23.1597 41.5314 23.5629 41.354C23.9512 41.1766 24.4291 41.0879 24.9518 41.0879C25.7731 41.0879 26.4451 41.2801 26.923 41.6793C27.4158 42.0784 27.6846 42.5811 27.7742 43.202H26.6094C26.5496 42.8768 26.3704 42.5811 26.1016 42.3298C25.8179 42.0784 25.4445 41.9454 24.9667 41.9454C24.5336 41.9454 24.1752 42.0637 23.9213 42.2854C23.6525 42.5072 23.5331 42.8324 23.5331 43.2316C23.5331 43.5569 23.6227 43.823 23.7869 44.0152C23.9661 44.2222 24.1752 44.37 24.4291 44.4883C24.6829 44.6065 25.0413 44.7248 25.4744 44.8727C26.012 45.0501 26.4451 45.2127 26.7886 45.3753C27.1171 45.538 27.4008 45.7745 27.6248 46.085C27.8489 46.3954 27.9683 46.8242 27.9683 47.3564C27.9385 47.7408 27.8489 48.1104 27.6547 48.4505Z" fill="#FF5196"/>
<path d="M33.4784 41.1768V49.5151H32.3882V41.1768H33.4784Z" fill="#FF5196"/>
<path d="M44.4994 41.8124C45.1714 42.3003 45.6194 42.9508 45.8434 43.7787H44.6936C44.4994 43.2761 44.1559 42.8621 43.693 42.5664C43.23 42.256 42.6775 42.1081 42.0354 42.1081C41.4679 42.1081 40.9452 42.2412 40.4972 42.5073C40.0492 42.7734 39.6908 43.143 39.422 43.6309C39.1681 44.1188 39.0337 44.6954 39.0337 45.3607C39.0337 46.0407 39.1681 46.6321 39.422 47.12C39.6759 47.6079 40.0492 47.9923 40.5121 48.2584C40.9751 48.5245 41.5127 48.6576 42.125 48.6576C42.6477 48.6576 43.1106 48.5393 43.5436 48.3323C43.9767 48.1105 44.3202 47.7853 44.6039 47.3713C44.8877 46.9574 45.037 46.4547 45.0968 45.8929H41.7815V45.0945H46.0077V46.0851C45.933 46.7504 45.724 47.3418 45.3805 47.8888C45.037 48.4358 44.5741 48.8497 43.9917 49.1602C43.4093 49.4707 42.7522 49.6333 42.0055 49.6333C41.1991 49.6333 40.4822 49.4559 39.855 49.1011C39.2278 48.7463 38.7499 48.2436 38.4065 47.5931C38.063 46.9574 37.8838 46.2181 37.8838 45.3902C37.8838 44.5623 38.063 43.8231 38.4065 43.1874C38.7499 42.5516 39.2428 42.0342 39.855 41.6794C40.4673 41.3246 41.1841 41.1324 41.9905 41.1324C43.006 41.1028 43.8274 41.3393 44.4994 41.8124Z" fill="#FF5196"/>
<path d="M57.029 49.5151H55.9389L51.5633 42.9213V49.5151H50.4731V41.1768H51.5633L55.9389 47.7705V41.1768H57.029V49.5151Z" fill="#FF5196"/>
<path d="M72.7387 48.4505C72.5446 48.7905 72.2608 49.0714 71.8726 49.2784C71.4843 49.4854 71.0064 49.6036 70.424 49.6036C69.8715 49.6036 69.3637 49.5001 68.9307 49.308C68.4976 49.101 68.1541 48.8349 67.8853 48.48C67.6314 48.1252 67.4821 47.726 67.4373 47.2825H68.6021C68.632 47.5191 68.7067 47.7556 68.8411 47.9774C68.9755 48.1991 69.1845 48.3913 69.4384 48.5392C69.6922 48.687 70.0059 48.7609 70.3792 48.7609C70.8571 48.7609 71.2304 48.6427 71.4843 48.3765C71.7381 48.1104 71.8726 47.8 71.8726 47.4008C71.8726 47.0607 71.783 46.7798 71.6038 46.5729C71.4246 46.3659 71.2005 46.1885 70.9467 46.0702C70.6928 45.9519 70.3195 45.8189 69.8715 45.671C69.3339 45.4936 68.9157 45.331 68.5871 45.1831C68.2586 45.0353 67.9898 44.7987 67.7658 44.4883C67.5418 44.1778 67.4224 43.7786 67.4224 43.276C67.4224 42.8472 67.5268 42.4628 67.7359 42.1228C67.945 41.7975 68.2437 41.5314 68.6469 41.354C69.0352 41.1766 69.5131 41.0879 70.0357 41.0879C70.8571 41.0879 71.5291 41.2801 72.007 41.6793C72.4998 42.0784 72.7686 42.5811 72.8582 43.202H71.6934C71.6336 42.8768 71.4544 42.5811 71.1856 42.3298C70.9018 42.0784 70.5286 41.9454 70.0507 41.9454C69.6176 41.9454 69.2592 42.0637 69.0053 42.2854C68.7365 42.5072 68.617 42.8324 68.617 43.2316C68.617 43.5569 68.7066 43.823 68.8709 44.0152C69.0501 44.2222 69.2591 44.37 69.513 44.4883C69.7669 44.6065 70.1253 44.7248 70.5584 44.8727C71.096 45.0501 71.5291 45.2127 71.8726 45.3753C72.2011 45.538 72.4848 45.7745 72.7088 46.085C72.9328 46.3954 73.0523 46.8242 73.0523 47.3564C73.0224 47.7408 72.9329 48.1104 72.7387 48.4505Z" fill="#FF5196"/>
<path d="M82.6397 41.1768V42.049H80.2652V49.5151H79.1601V42.049H76.7856V41.1768H82.6397Z" fill="#FF5196"/>
<path d="M87.7184 41.1768V46.1738C87.7184 46.987 87.8976 47.5931 88.271 47.9923C88.6443 48.3767 89.1371 48.5837 89.7942 48.5837C90.4364 48.5837 90.9292 48.3915 91.2876 47.9923C91.646 47.5931 91.8252 47.0018 91.8252 46.1886V41.1915H92.9154V46.1886C92.9154 47.327 92.6316 48.1845 92.0642 48.7463C91.4967 49.3229 90.735 49.6038 89.7793 49.6038C88.8385 49.6038 88.0769 49.3229 87.5094 48.7463C86.942 48.1697 86.6582 47.327 86.6582 46.1886V41.1915H87.7184V41.1768Z" fill="#FF5196"/>
<path d="M104.16 47.5488C103.816 48.1697 103.308 48.6576 102.651 48.9976C101.979 49.3377 101.188 49.5151 100.262 49.5151H97.5889V41.1768H100.262C101.188 41.1768 101.994 41.3394 102.651 41.6794C103.308 42.0195 103.816 42.4926 104.16 43.1283C104.503 43.764 104.667 44.4884 104.667 45.3459C104.667 46.1886 104.503 46.9278 104.16 47.5488ZM102.696 47.7114C103.279 47.1496 103.562 46.366 103.562 45.3459C103.562 44.3258 103.279 43.5422 102.696 42.9804C102.114 42.4186 101.277 42.1377 100.172 42.1377H98.664V48.5541H100.172C101.263 48.5541 102.114 48.2732 102.696 47.7114Z" fill="#FF5196"/>
<path d="M110.222 41.1768V49.5151H109.132V41.1768H110.222Z" fill="#FF5196"/>
<path d="M120.915 41.6203C121.542 41.9899 122.035 42.4925 122.393 43.143C122.752 43.7935 122.931 44.5328 122.931 45.3459C122.931 46.159 122.752 46.8982 122.393 47.5488C122.035 48.1993 121.542 48.7019 120.915 49.0715C120.288 49.4411 119.586 49.6186 118.809 49.6186C118.033 49.6186 117.316 49.4411 116.689 49.0715C116.061 48.7019 115.554 48.1993 115.195 47.5488C114.837 46.8982 114.658 46.159 114.658 45.3459C114.658 44.5328 114.837 43.7935 115.195 43.143C115.554 42.4925 116.047 41.9899 116.689 41.6203C117.331 41.2507 118.033 41.0732 118.809 41.0732C119.586 41.0732 120.288 41.2507 120.915 41.6203ZM117.241 42.4777C116.778 42.7439 116.42 43.1135 116.166 43.6161C115.912 44.104 115.778 44.6806 115.778 45.3459C115.778 45.9964 115.912 46.573 116.166 47.0757C116.42 47.5783 116.778 47.9479 117.241 48.214C117.704 48.4802 118.212 48.6132 118.794 48.6132C119.362 48.6132 119.884 48.4802 120.347 48.214C120.81 47.9479 121.169 47.5635 121.423 47.0757C121.676 46.5878 121.811 46.0112 121.811 45.3607C121.811 44.6954 121.676 44.1188 121.423 43.6309C121.169 43.143 120.81 42.7586 120.347 42.4925C119.884 42.2264 119.377 42.0934 118.794 42.0934C118.227 42.0786 117.704 42.2116 117.241 42.4777Z" fill="#FF5196"/>
</svg>
