<svg width="175" height="58" viewBox="0 0 175 58" fill="none" xmlns="http://www.w3.org/2000/svg">
<path d="M174.333 9.59452C171.391 8.35367 168.396 7.38711 165.361 6.62954C162.34 5.83278 159.279 5.27114 156.205 4.87929C154.675 4.64418 153.118 4.59193 151.587 4.40907C150.044 4.36989 148.513 4.21315 146.97 4.27846C146.204 4.29152 145.426 4.29152 144.661 4.27846C143.896 4.27846 143.117 4.35682 142.352 4.38295C141.587 4.43519 140.808 4.44826 140.043 4.52663L137.747 4.80092C134.673 5.04909 131.692 5.67605 128.71 6.44668C125.689 7.16507 122.826 8.18387 119.778 9.20268C116.651 10.2345 113.26 10.8615 109.856 10.3913C108.181 10.117 106.492 9.52922 105.159 8.48429C103.8 7.45242 102.877 6.04177 102.31 4.56581C103.246 5.85891 104.407 6.9169 105.74 7.56998C107.072 8.22306 108.537 8.49735 110.001 8.48429C112.957 8.48429 115.886 7.54385 118.656 6.36831C121.48 5.03603 124.58 3.86048 127.668 2.89393C130.781 1.96655 134.027 1.26123 137.272 0.921625C143.75 0.242422 150.374 0.399161 156.72 1.88818C159.899 2.55432 163 3.57313 165.968 4.82704C168.95 6.10708 171.826 7.5961 174.333 9.59452Z" fill="#FEBA66"/>
<path d="M0.0830078 47.9312C3.55291 49.368 7.08876 50.4782 10.6906 51.3272C14.266 52.2154 17.9075 52.8424 21.5489 53.2342C23.3696 53.4824 25.2035 53.5085 27.011 53.6783C28.8449 53.6914 30.6656 53.8351 32.4863 53.7306L35.2174 53.6653C36.1277 53.6522 37.0381 53.5346 37.9484 53.4824C38.8588 53.404 39.7691 53.3648 40.6663 53.2473L43.371 52.8685C46.9992 52.4767 50.5219 51.6407 54.0314 50.635C57.5804 49.6684 60.9316 48.3884 64.4806 47.0561C68.1089 45.7369 72.0405 44.8748 76.025 45.2928C77.9908 45.541 79.9698 46.1679 81.5795 47.3173C83.2023 48.4537 84.3633 50.0733 85.1021 51.7713C83.9939 50.2562 82.6085 49.0153 81.0121 48.2447C79.4157 47.4741 77.661 47.1606 75.9194 47.2128C72.3968 47.2651 68.9268 48.4276 65.668 49.8905C62.3565 51.5101 58.7678 52.973 55.1528 54.1877C51.5114 55.3502 47.7512 56.2776 43.9383 56.7478C36.352 57.7405 28.581 57.7535 21.0871 56.2515C17.327 55.5723 13.6591 54.5143 10.1101 53.1689C6.58741 51.7713 3.14391 50.1386 0.0830078 47.9312Z" fill="#FEBA66"/>
<path d="M9.27164 35.4638C8.04962 35.4638 6.95294 35.2758 5.98159 34.8998C5.01025 34.5238 4.18773 33.9755 3.51406 33.2548C2.84038 32.5185 2.32337 31.6254 1.96304 30.5758C1.6027 29.5261 1.42253 28.3197 1.42253 26.9567C1.42253 25.5937 1.6262 24.3873 2.03354 23.3377C2.45654 22.288 3.02838 21.4028 3.74906 20.6821C4.46974 19.9458 5.31575 19.3896 6.2871 19.0136C7.25845 18.6376 8.30029 18.4496 9.41264 18.4496C10.0863 18.4496 10.6973 18.5044 11.2457 18.6141C11.794 18.7081 12.2719 18.8178 12.6792 18.9431C13.0865 19.0684 13.4234 19.2016 13.6897 19.3426C13.956 19.4836 14.144 19.5854 14.2537 19.6481L13.3842 22.0686C13.0082 21.8336 12.4677 21.6143 11.7627 21.4106C11.0733 21.1913 10.3213 21.0816 9.50665 21.0816C8.80163 21.0816 8.14363 21.207 7.53262 21.4576C6.92161 21.6926 6.38893 22.053 5.93459 22.5386C5.49592 23.0243 5.15125 23.6353 4.90058 24.3717C4.64991 25.108 4.52457 25.9619 4.52457 26.9332C4.52457 27.7949 4.61857 28.5861 4.80658 29.3067C5.01025 30.0274 5.31575 30.6541 5.72309 31.1868C6.13043 31.7038 6.64744 32.1111 7.27411 32.4088C7.90079 32.6908 8.6528 32.8318 9.53015 32.8318C10.5798 32.8318 11.4337 32.73 12.0917 32.5263C12.7497 32.307 13.2589 32.1033 13.6192 31.9153L14.4182 34.3358C14.2302 34.4612 13.9717 34.5865 13.6427 34.7118C13.3294 34.8372 12.9534 34.9625 12.5147 35.0878C12.076 35.1975 11.5825 35.2837 11.0342 35.3463C10.4858 35.4247 9.89832 35.4638 9.27164 35.4638ZM26.5471 34.7353C25.9988 34.8763 25.286 35.0173 24.4086 35.1583C23.5313 35.315 22.5678 35.3933 21.5181 35.3933C20.5311 35.3933 19.7007 35.2523 19.027 34.9703C18.369 34.6883 17.8364 34.2966 17.429 33.7953C17.0373 33.294 16.7553 32.6986 16.583 32.0093C16.4107 31.3043 16.3245 30.5366 16.3245 29.7062V22.8206H19.168V29.2597C19.168 30.5758 19.356 31.5158 19.732 32.0798C20.1237 32.6438 20.7974 32.9258 21.7531 32.9258C22.0977 32.9258 22.4581 32.9101 22.8341 32.8788C23.2258 32.8475 23.5156 32.8083 23.7036 32.7613V22.8206H26.5471V34.7353ZM37.1695 25.3822C36.9345 25.3039 36.6055 25.2255 36.1825 25.1472C35.7751 25.0532 35.2973 25.0062 34.749 25.0062C34.4356 25.0062 34.0988 25.0375 33.7384 25.1002C33.3938 25.1628 33.1509 25.2177 33.0099 25.2647V35.1113H30.1664V23.4082C30.7147 23.2045 31.3962 23.0165 32.2109 22.8441C33.0413 22.6561 33.9578 22.5621 34.9605 22.5621C35.1485 22.5621 35.3678 22.5778 35.6185 22.6091C35.8691 22.6248 36.1198 22.6561 36.3705 22.7031C36.6211 22.7345 36.864 22.7815 37.099 22.8441C37.334 22.8911 37.522 22.9382 37.663 22.9852L37.1695 25.3822ZM46.6477 25.3822C46.4126 25.3039 46.0836 25.2255 45.6606 25.1472C45.2533 25.0532 44.7755 25.0062 44.2271 25.0062C43.9138 25.0062 43.5769 25.0375 43.2166 25.1002C42.8719 25.1628 42.6291 25.2177 42.4881 25.2647V35.1113H39.6445V23.4082C40.1929 23.2045 40.8744 23.0165 41.6891 22.8441C42.5194 22.6561 43.4359 22.5621 44.4386 22.5621C44.6266 22.5621 44.846 22.5778 45.0966 22.6091C45.3473 22.6248 45.598 22.6561 45.8486 22.7031C46.0993 22.7345 46.3421 22.7815 46.5771 22.8441C46.8122 22.8911 47.0002 22.9382 47.1412 22.9852L46.6477 25.3822ZM48.4412 29.0247C48.4412 27.9437 48.5979 26.9959 48.9112 26.1812C49.2402 25.3665 49.6711 24.6928 50.2037 24.1602C50.7364 23.6118 51.3474 23.2045 52.0368 22.9382C52.7261 22.6561 53.4311 22.5151 54.1518 22.5151C55.8438 22.5151 57.1598 23.04 58.0998 24.0897C59.0555 25.1393 59.5334 26.706 59.5334 28.7897C59.5334 28.9464 59.5255 29.1266 59.5099 29.3302C59.5099 29.5182 59.502 29.6906 59.4864 29.8473H51.3787C51.4571 30.8343 51.8018 31.6019 52.4128 32.1503C53.0394 32.683 53.9403 32.9493 55.1153 32.9493C55.8046 32.9493 56.4313 32.8866 56.9953 32.7613C57.575 32.636 58.0293 32.5028 58.3583 32.3618L58.7344 34.6883C58.5777 34.7667 58.3583 34.8528 58.0763 34.9468C57.81 35.0252 57.4967 35.0957 57.1363 35.1583C56.7917 35.2367 56.4157 35.2993 56.0083 35.3463C55.601 35.3933 55.1858 35.4168 54.7628 35.4168C53.6818 35.4168 52.7418 35.2602 51.9428 34.9468C51.1437 34.6178 50.4857 34.1713 49.9687 33.6073C49.4517 33.0276 49.0679 32.354 48.8172 31.5863C48.5665 30.8029 48.4412 29.9491 48.4412 29.0247ZM56.6898 27.7557C56.6898 27.364 56.635 26.9959 56.5253 26.6512C56.4157 26.2909 56.2512 25.9854 56.0318 25.7347C55.8281 25.4684 55.5696 25.2647 55.2563 25.1237C54.9586 24.967 54.5983 24.8887 54.1753 24.8887C53.7366 24.8887 53.3528 24.9748 53.0238 25.1472C52.6948 25.3039 52.4128 25.5154 52.1778 25.7817C51.9584 26.048 51.7861 26.3535 51.6607 26.6982C51.5354 27.0429 51.4492 27.3954 51.4022 27.7557H56.6898ZM62.5482 23.2202C63.0965 23.0635 63.8094 22.9147 64.6867 22.7736C65.5641 22.6326 66.5354 22.5621 67.6008 22.5621C68.6035 22.5621 69.4416 22.7031 70.1153 22.9852C70.789 23.2515 71.3217 23.6353 71.7133 24.1367C72.1207 24.6223 72.4027 25.2177 72.5593 25.9227C72.7317 26.612 72.8178 27.3719 72.8178 28.2022V35.1113H69.9743V28.6487C69.9743 27.9907 69.9273 27.4345 69.8333 26.9802C69.755 26.5102 69.614 26.1342 69.4103 25.8522C69.2223 25.5545 68.956 25.343 68.6113 25.2177C68.2823 25.0767 67.8749 25.0062 67.3893 25.0062C67.0289 25.0062 66.6529 25.0297 66.2613 25.0767C65.8696 25.1237 65.5797 25.1628 65.3917 25.1942V35.1113H62.5482V23.2202ZM75.6135 28.9777C75.6135 28.0691 75.7545 27.223 76.0365 26.4397C76.3185 25.6407 76.718 24.9513 77.235 24.3717C77.7677 23.792 78.41 23.3377 79.162 23.0087C79.914 22.6796 80.76 22.5151 81.7001 22.5151C82.8594 22.5151 83.9561 22.7266 84.9901 23.1497L84.3791 25.4762C84.0501 25.3352 83.6741 25.2177 83.2511 25.1237C82.8437 25.0297 82.4051 24.9827 81.9351 24.9827C80.8227 24.9827 79.9767 25.3352 79.397 26.0402C78.8174 26.7295 78.5275 27.7087 78.5275 28.9777C78.5275 30.1998 78.8017 31.1711 79.35 31.8918C79.8984 32.5968 80.8227 32.9493 82.1231 32.9493C82.6087 32.9493 83.0866 32.9023 83.5566 32.8083C84.0266 32.7143 84.4339 32.5968 84.7786 32.4558L85.1781 34.8058C84.8648 34.9625 84.3869 35.1035 83.7446 35.2288C83.1179 35.3542 82.4677 35.4168 81.7941 35.4168C80.7444 35.4168 79.8279 35.2602 79.0445 34.9468C78.2768 34.6178 77.6345 34.1713 77.1175 33.6073C76.6162 33.0276 76.2402 32.3461 75.9895 31.5628C75.7388 30.7638 75.6135 29.9021 75.6135 28.9777ZM97.6208 22.8206C96.3518 27.4894 94.8791 31.7194 93.2027 35.5108C92.8894 36.2158 92.5682 36.819 92.2392 37.3204C91.9102 37.8217 91.5421 38.2369 91.1347 38.5659C90.7274 38.8949 90.273 39.1299 89.7717 39.2709C89.2704 39.4276 88.6907 39.5059 88.0327 39.5059C87.594 39.5059 87.1553 39.4589 86.7166 39.3649C86.2936 39.2709 85.9725 39.1691 85.7531 39.0594L86.2701 36.7799C86.8341 36.9992 87.3903 37.1089 87.9387 37.1089C88.675 37.1089 89.2469 36.9287 89.6542 36.5683C90.0772 36.2237 90.4454 35.6832 90.7587 34.9468C89.8657 33.2235 89.004 31.3434 88.1737 29.3067C87.359 27.27 86.6305 25.108 85.9881 22.8206H89.0197C89.1764 23.4787 89.3644 24.1915 89.5837 24.9592C89.8187 25.7269 90.0694 26.5102 90.3357 27.3092C90.602 28.0926 90.884 28.8759 91.1817 29.6592C91.4794 30.4426 91.7771 31.1711 92.0747 31.8448C92.5761 30.4504 93.0461 28.9699 93.4847 27.4032C93.9234 25.8209 94.3229 24.2933 94.6833 22.8206H97.6208ZM115.832 20.6586C116.083 21.5046 116.349 22.3898 116.631 23.3142C116.913 24.2228 117.203 25.1393 117.501 26.0637C117.814 26.9724 118.12 27.8732 118.418 28.7662C118.731 29.6436 119.029 30.4739 119.311 31.2573C119.546 30.4113 119.773 29.4947 119.992 28.5077C120.211 27.5051 120.431 26.471 120.65 25.4057C120.869 24.3247 121.081 23.228 121.285 22.1156C121.504 21.0033 121.708 19.9066 121.896 18.8256H124.951C124.402 21.771 123.791 24.6067 123.118 27.3327C122.444 30.0431 121.692 32.636 120.862 35.1113H118.042C116.819 31.9466 115.637 28.4921 114.493 24.7477C113.913 26.6434 113.326 28.4451 112.73 30.1528C112.135 31.8604 111.54 33.5133 110.944 35.1113H108.124C107.278 32.636 106.519 30.0431 105.845 27.3327C105.187 24.6067 104.584 21.771 104.035 18.8256H107.208C107.396 19.8909 107.592 20.9798 107.795 22.0921C108.015 23.2045 108.234 24.3012 108.453 25.3822C108.688 26.4475 108.923 27.4816 109.158 28.4842C109.393 29.4869 109.628 30.4113 109.863 31.2573C110.161 30.4583 110.459 29.6201 110.756 28.7427C111.07 27.8497 111.375 26.9489 111.673 26.0402C111.971 25.1158 112.253 24.1993 112.519 23.2907C112.801 22.382 113.059 21.5046 113.294 20.6586H115.832ZM131.016 33.1138C131.894 33.1138 132.559 33.0668 133.014 32.9728V29.8238C132.857 29.7768 132.63 29.7297 132.332 29.6827C132.035 29.6357 131.706 29.6122 131.345 29.6122C131.032 29.6122 130.711 29.6357 130.382 29.6827C130.068 29.7297 129.779 29.8159 129.512 29.9413C129.262 30.0666 129.058 30.2468 128.901 30.4818C128.745 30.7011 128.666 30.9831 128.666 31.3278C128.666 32.0014 128.878 32.4715 129.301 32.7378C129.724 32.9885 130.296 33.1138 131.016 33.1138ZM130.781 22.5151C131.721 22.5151 132.512 22.6326 133.155 22.8676C133.797 23.1027 134.306 23.4317 134.682 23.8547C135.074 24.2777 135.348 24.7947 135.505 25.4057C135.677 26.001 135.763 26.659 135.763 27.3797V34.8293C135.325 34.9233 134.659 35.033 133.766 35.1583C132.888 35.2993 131.894 35.3698 130.781 35.3698C130.045 35.3698 129.371 35.2993 128.76 35.1583C128.149 35.0173 127.624 34.7902 127.186 34.4768C126.763 34.1635 126.426 33.7561 126.175 33.2548C125.94 32.7535 125.823 32.1346 125.823 31.3983C125.823 30.6933 125.956 30.0979 126.222 29.6122C126.504 29.1266 126.88 28.7349 127.35 28.4372C127.82 28.1239 128.361 27.9046 128.972 27.7792C129.598 27.6382 130.249 27.5677 130.922 27.5677C131.236 27.5677 131.565 27.5912 131.909 27.6382C132.254 27.6696 132.622 27.7322 133.014 27.8262V27.3562C133.014 27.0272 132.975 26.7139 132.896 26.4162C132.818 26.1185 132.677 25.86 132.473 25.6407C132.285 25.4057 132.027 25.2255 131.698 25.1002C131.384 24.9748 130.985 24.9122 130.499 24.9122C129.841 24.9122 129.238 24.9592 128.69 25.0532C128.141 25.1472 127.695 25.2569 127.35 25.3822L126.998 23.0792C127.358 22.9538 127.883 22.8285 128.572 22.7031C129.262 22.5778 129.998 22.5151 130.781 22.5151ZM142.096 35.1113C141.313 33.4976 140.506 31.6489 139.676 29.5652C138.861 27.4659 138.117 25.2177 137.443 22.8206H140.475C140.647 23.51 140.843 24.2542 141.062 25.0532C141.297 25.8365 141.54 26.6277 141.791 27.4267C142.057 28.2101 142.323 28.9777 142.59 29.7297C142.872 30.4661 143.13 31.1319 143.365 31.7273C143.6 31.1319 143.851 30.4661 144.117 29.7297C144.384 28.9777 144.642 28.2101 144.893 27.4267C145.159 26.6277 145.41 25.8365 145.645 25.0532C145.88 24.2542 146.084 23.51 146.256 22.8206H149.193C148.52 25.2177 147.768 27.4659 146.937 29.5652C146.123 31.6489 145.324 33.4976 144.54 35.1113H142.096ZM150.36 29.0247C150.36 27.9437 150.517 26.9959 150.83 26.1812C151.159 25.3665 151.59 24.6928 152.123 24.1602C152.655 23.6118 153.266 23.2045 153.956 22.9382C154.645 22.6561 155.35 22.5151 156.071 22.5151C157.763 22.5151 159.079 23.04 160.019 24.0897C160.974 25.1393 161.452 26.706 161.452 28.7897C161.452 28.9464 161.444 29.1266 161.429 29.3302C161.429 29.5182 161.421 29.6906 161.405 29.8473H153.298C153.376 30.8343 153.721 31.6019 154.332 32.1503C154.958 32.683 155.859 32.9493 157.034 32.9493C157.724 32.9493 158.35 32.8866 158.914 32.7613C159.494 32.636 159.948 32.5028 160.277 32.3618L160.653 34.6883C160.497 34.7667 160.277 34.8528 159.995 34.9468C159.729 35.0252 159.416 35.0957 159.055 35.1583C158.711 35.2367 158.335 35.2993 157.927 35.3463C157.52 35.3933 157.105 35.4168 156.682 35.4168C155.601 35.4168 154.661 35.2602 153.862 34.9468C153.063 34.6178 152.405 34.1713 151.888 33.6073C151.371 33.0276 150.987 32.354 150.736 31.5863C150.485 30.8029 150.36 29.9491 150.36 29.0247ZM158.609 27.7557C158.609 27.364 158.554 26.9959 158.444 26.6512C158.335 26.2909 158.17 25.9854 157.951 25.7347C157.747 25.4684 157.489 25.2647 157.175 25.1237C156.878 24.967 156.517 24.8887 156.094 24.8887C155.656 24.8887 155.272 24.9748 154.943 25.1472C154.614 25.3039 154.332 25.5154 154.097 25.7817C153.877 26.048 153.705 26.3535 153.58 26.6982C153.454 27.0429 153.368 27.3954 153.321 27.7557H158.609Z" fill="#263238"/>
</svg>
