<svg width="169" height="65" viewBox="0 0 169 65" fill="none" xmlns="http://www.w3.org/2000/svg">
<path d="M11.8818 17.4986C11.7577 17.2007 11.5901 16.8221 11.3791 16.3628C11.1805 15.9035 10.9632 15.407 10.7274 14.8732C10.4915 14.3395 10.2371 13.7933 9.96398 13.2347C9.7033 12.6637 9.45504 12.1299 9.21919 11.6334C8.98334 11.1244 8.7599 10.6713 8.54887 10.2741C8.35026 9.8769 8.18889 9.57278 8.06476 9.36175C7.92821 10.8265 7.81649 12.4154 7.7296 14.1284C7.64271 15.829 7.56823 17.5483 7.50616 19.2861H5.73728C5.78693 18.1689 5.84279 17.0455 5.90485 15.9159C5.96692 14.7739 6.03519 13.6567 6.10967 12.5644C6.19657 11.4596 6.28346 10.3858 6.37035 9.34313C6.46966 8.30042 6.57517 7.31357 6.68689 6.38257H8.26958C8.60473 6.92876 8.96472 7.57424 9.34953 8.31904C9.73434 9.06383 10.1191 9.84587 10.504 10.6651C10.8888 11.472 11.2612 12.2851 11.6211 13.1043C11.9811 13.9112 12.3101 14.6498 12.608 15.3201C12.9059 14.6498 13.2349 13.9112 13.5949 13.1043C13.9548 12.2851 14.3272 11.472 14.712 10.6651C15.0969 9.84587 15.4817 9.06383 15.8665 8.31904C16.2513 7.57424 16.6113 6.92876 16.9464 6.38257H18.5291C18.9512 10.541 19.2677 14.8422 19.4787 19.2861H17.7098C17.6478 17.5483 17.5733 15.829 17.4864 14.1284C17.3995 12.4154 17.2878 10.8265 17.1512 9.36175C17.0271 9.57278 16.8595 9.8769 16.6485 10.2741C16.4499 10.6713 16.2327 11.1244 15.9968 11.6334C15.761 12.1299 15.5065 12.6637 15.2334 13.2347C14.9727 13.7933 14.7245 14.3395 14.4886 14.8732C14.2528 15.407 14.0293 15.9035 13.8183 16.3628C13.6197 16.8221 13.4583 17.2007 13.3342 17.4986H11.8818ZM30.7455 14.445C30.7455 15.2146 30.6338 15.9097 30.4103 16.5304C30.1869 17.1511 29.8704 17.6848 29.4607 18.1317C29.0635 18.5786 28.5856 18.9261 28.027 19.1744C27.4684 19.4103 26.8601 19.5282 26.2022 19.5282C25.5443 19.5282 24.9361 19.4103 24.3775 19.1744C23.8189 18.9261 23.3348 18.5786 22.9251 18.1317C22.5279 17.6848 22.2176 17.1511 21.9942 16.5304C21.7707 15.9097 21.659 15.2146 21.659 14.445C21.659 13.6878 21.7707 12.9988 21.9942 12.3782C22.2176 11.7451 22.5279 11.2051 22.9251 10.7582C23.3348 10.3114 23.8189 9.97 24.3775 9.73415C24.9361 9.48588 25.5443 9.36175 26.2022 9.36175C26.8601 9.36175 27.4684 9.48588 28.027 9.73415C28.5856 9.97 29.0635 10.3114 29.4607 10.7582C29.8704 11.2051 30.1869 11.7451 30.4103 12.3782C30.6338 12.9988 30.7455 13.6878 30.7455 14.445ZM28.9394 14.445C28.9394 13.3526 28.6911 12.4899 28.1946 11.8568C27.7104 11.2113 27.0463 10.8886 26.2022 10.8886C25.3581 10.8886 24.6878 11.2113 24.1913 11.8568C23.7072 12.4899 23.4651 13.3526 23.4651 14.445C23.4651 15.5373 23.7072 16.4063 24.1913 17.0518C24.6878 17.6848 25.3581 18.0014 26.2022 18.0014C27.0463 18.0014 27.7104 17.6848 28.1946 17.0518C28.6911 16.4063 28.9394 15.5373 28.9394 14.445ZM39.438 11.652C39.227 11.4782 38.9229 11.3106 38.5257 11.1493C38.1284 10.9879 37.694 10.9072 37.2223 10.9072C36.7258 10.9072 36.2975 11.0003 35.9375 11.1865C35.5899 11.3603 35.3044 11.6085 35.081 11.9313C34.8576 12.2416 34.6962 12.614 34.5969 13.0485C34.4976 13.4829 34.4479 13.9484 34.4479 14.445C34.4479 15.5746 34.7272 16.4497 35.2858 17.0704C35.8444 17.6786 36.5892 17.9827 37.5202 17.9827C37.9919 17.9827 38.3829 17.9641 38.6933 17.9269C39.016 17.8772 39.2643 17.8276 39.438 17.7779V11.652ZM39.438 5.13504L41.1697 4.83713V19.0068C40.7725 19.1186 40.2635 19.2303 39.6429 19.342C39.0222 19.4537 38.3084 19.5096 37.5016 19.5096C36.7568 19.5096 36.0865 19.3916 35.4906 19.1558C34.8948 18.9199 34.3859 18.5848 33.9638 18.1503C33.5418 17.7159 33.2128 17.1883 32.977 16.5676C32.7535 15.9346 32.6418 15.227 32.6418 14.445C32.6418 13.7002 32.7349 13.0174 32.9211 12.3968C33.1197 11.7761 33.4052 11.2424 33.7776 10.7955C34.15 10.3486 34.6031 10.001 35.1369 9.75277C35.683 9.5045 36.3037 9.38037 36.9988 9.38037C37.5574 9.38037 38.0478 9.45485 38.4698 9.60381C38.9043 9.75277 39.227 9.89552 39.438 10.0321V5.13504ZM43.6064 14.4636C43.6064 13.6071 43.7306 12.8623 43.9788 12.2292C44.2271 11.5837 44.556 11.05 44.9657 10.6279C45.3753 10.2059 45.847 9.88931 46.3808 9.67829C46.9145 9.46726 47.4607 9.36175 48.0193 9.36175C49.3227 9.36175 50.322 9.77139 51.0171 10.5907C51.7123 11.3975 52.0598 12.6326 52.0598 14.296C52.0598 14.3705 52.0598 14.4698 52.0598 14.5939C52.0598 14.7056 52.0536 14.8112 52.0412 14.9105H45.4125C45.487 15.9159 45.7787 16.6794 46.2877 17.2007C46.7966 17.7221 47.5911 17.9827 48.671 17.9827C49.2793 17.9827 49.7882 17.9331 50.1978 17.8338C50.6199 17.7221 50.9364 17.6166 51.1475 17.5172L51.3895 18.9696C51.1785 19.0813 50.8061 19.1992 50.2723 19.3234C49.751 19.4475 49.1551 19.5096 48.4848 19.5096C47.6407 19.5096 46.9083 19.3854 46.2877 19.1372C45.6794 18.8765 45.1767 18.5227 44.7795 18.0758C44.3822 17.629 44.0843 17.1014 43.8857 16.4932C43.6995 15.8725 43.6064 15.196 43.6064 14.4636ZM50.2537 13.514C50.2661 12.7319 50.0675 12.0927 49.6579 11.5961C49.2606 11.0872 48.7083 10.8327 48.0007 10.8327C47.6035 10.8327 47.2497 10.9134 46.9394 11.0748C46.6415 11.2237 46.387 11.4223 46.176 11.6706C45.9649 11.9189 45.7974 12.2044 45.6732 12.5271C45.5615 12.8499 45.487 13.1788 45.4498 13.514H50.2537ZM58.1223 9.39899C58.2713 9.39899 58.4389 9.4114 58.6251 9.43623C58.8237 9.44864 59.0161 9.47347 59.2023 9.51071C59.3885 9.53554 59.5561 9.56657 59.705 9.60381C59.8664 9.62864 59.9843 9.65346 60.0588 9.67829L59.7609 11.1865C59.6243 11.1368 59.3947 11.081 59.072 11.0189C58.7616 10.9444 58.3582 10.9072 57.8617 10.9072C57.5389 10.9072 57.2162 10.9444 56.8934 11.0189C56.5831 11.081 56.3783 11.1244 56.279 11.1493V19.2861H54.5473V10.0134C54.957 9.86449 55.4659 9.72794 56.0742 9.60381C56.6824 9.46726 57.3651 9.39899 58.1223 9.39899ZM61.7298 9.88311C62.127 9.7838 62.6546 9.67829 63.3125 9.56657C63.9704 9.45485 64.7276 9.39899 65.5841 9.39899C66.3537 9.39899 66.993 9.51071 67.5019 9.73415C68.0109 9.94517 68.4143 10.2493 68.7122 10.6465C69.0226 11.0313 69.2398 11.4968 69.3639 12.043C69.4881 12.5892 69.5501 13.1912 69.5501 13.8491V19.2861H67.8185V14.2215C67.8185 13.6257 67.775 13.1168 67.6881 12.6947C67.6137 12.2727 67.4833 11.9313 67.2971 11.6706C67.1109 11.4099 66.8627 11.2237 66.5523 11.112C66.242 10.9879 65.8572 10.9258 65.3979 10.9258C65.2117 10.9258 65.0193 10.932 64.8207 10.9444C64.6221 10.9569 64.4297 10.9755 64.2435 11.0003C64.0697 11.0127 63.9083 11.0313 63.7594 11.0562C63.6228 11.081 63.5235 11.0996 63.4614 11.112V19.2861H61.7298V9.88311Z" fill="#263238"/>
<path d="M16.3003 53.8145C11.8049 53.8145 8.37354 52.5643 6.00616 50.0639C3.66537 47.5635 2.49498 44.0124 2.49498 39.4107C2.49498 37.1231 2.85408 35.0882 3.57228 33.306C4.29047 31.4972 5.27466 29.981 6.52485 28.7575C7.77504 27.5073 9.26463 26.563 10.9936 25.9246C12.7226 25.2862 14.5979 24.967 16.6195 24.967C17.7899 24.967 18.8539 25.0601 19.8114 25.2463C20.769 25.4059 21.6069 25.6054 22.3251 25.8448C23.0433 26.0576 23.6418 26.2837 24.1206 26.5231C24.5994 26.7625 24.9452 26.9487 25.158 27.0817L23.3625 32.109C22.5113 31.6568 21.5138 31.2711 20.37 30.9519C19.2528 30.6327 17.9761 30.4731 16.5397 30.4731C15.5821 30.4731 14.6378 30.6327 13.7068 30.9519C12.8024 31.2711 11.9911 31.7898 11.2729 32.508C10.5813 33.1996 10.0227 34.104 9.59713 35.2212C9.17153 36.3384 8.95873 37.695 8.95873 39.291C8.95873 40.5678 9.09173 41.7648 9.35773 42.8819C9.65033 43.9725 10.1025 44.9168 10.7143 45.7148C11.3527 46.5128 12.1773 47.1512 13.1881 47.63C14.1989 48.0822 15.4225 48.3083 16.8589 48.3083C17.7633 48.3083 18.5746 48.2551 19.2927 48.1487C20.0109 48.0423 20.6493 47.9226 21.2079 47.7896C21.7665 47.63 22.2586 47.4571 22.6842 47.2709C23.1098 47.0847 23.4955 46.9118 23.8413 46.7522L25.557 51.7397C24.6792 52.2717 23.4423 52.7505 21.8463 53.1761C20.2503 53.6017 18.4017 53.8145 16.3003 53.8145ZM41.8136 37.5354C41.2816 37.4024 40.6565 37.2694 39.9383 37.1364C39.2201 36.9768 38.4487 36.897 37.6242 36.897C37.2518 36.897 36.7996 36.9369 36.2676 37.0167C35.7622 37.0699 35.3765 37.1364 35.1105 37.2162V53.2559H29.1654V33.3858C30.2294 33.0134 31.4796 32.6676 32.916 32.3484C34.379 32.0026 36.0016 31.8297 37.7838 31.8297C38.103 31.8297 38.4886 31.8563 38.9408 31.9095C39.393 31.9361 39.8452 31.9893 40.2974 32.0691C40.7496 32.1223 41.2018 32.2021 41.654 32.3085C42.1062 32.3883 42.4919 32.4947 42.8111 32.6277L41.8136 37.5354ZM65.8781 32.2686C64.6811 36.3118 63.4309 40.1023 62.1275 43.64C60.8242 47.1778 59.4011 50.6092 57.8583 53.9342C57.2997 55.1311 56.7411 56.1419 56.1825 56.9665C55.6239 57.8177 55.0121 58.5093 54.3471 59.0413C53.6821 59.5999 52.924 59.9989 52.0728 60.2383C51.2482 60.5043 50.2773 60.6373 49.1602 60.6373C48.2292 60.6373 47.3647 60.5442 46.5667 60.358C45.7953 60.1984 45.1569 60.0122 44.6515 59.7994L45.6889 55.0513C46.3007 55.2641 46.846 55.4104 47.3248 55.4902C47.8036 55.57 48.309 55.6099 48.841 55.6099C49.9049 55.6099 50.7162 55.3173 51.2748 54.7321C51.86 54.1736 52.3521 53.3889 52.7511 52.3781C51.3945 49.7181 50.0379 46.7389 48.6814 43.4405C47.3248 40.1156 46.048 36.3916 44.851 32.2686H51.1551C51.4211 33.306 51.727 34.4365 52.0728 35.6601C52.4452 36.8571 52.8309 38.0807 53.2299 39.3309C53.6289 40.5545 54.0279 41.7515 54.4269 42.9218C54.8525 44.0922 55.2515 45.1562 55.6239 46.1138C55.9697 45.1562 56.3288 44.0922 56.7012 42.9218C57.0736 41.7515 57.4327 40.5545 57.7785 39.3309C58.1509 38.0807 58.4967 36.8571 58.8159 35.6601C59.1617 34.4365 59.4676 33.306 59.7336 32.2686H65.8781ZM82.5113 42.9218C82.5113 41.0865 82.099 39.6235 81.2744 38.5329C80.4498 37.4157 79.2262 36.8571 77.6036 36.8571C77.0716 36.8571 76.5795 36.8837 76.1273 36.9369C75.6751 36.9635 75.3028 37.0034 75.0102 37.0566V47.7896C75.3826 48.029 75.8613 48.2285 76.4465 48.3881C77.0583 48.5477 77.6701 48.6275 78.2819 48.6275C81.1015 48.6275 82.5113 46.7256 82.5113 42.9218ZM88.576 42.7622C88.576 44.3848 88.3765 45.8611 87.9776 47.1911C87.5786 48.5211 86.9934 49.6649 86.222 50.6225C85.4506 51.5801 84.493 52.3249 83.3492 52.8569C82.2054 53.3889 80.8887 53.6549 79.3991 53.6549C78.5745 53.6549 77.8031 53.5751 77.0849 53.4155C76.3667 53.2559 75.6751 53.0298 75.0102 52.7372V60.6373H69.0651V32.9868C69.5971 32.8272 70.2089 32.6809 70.9005 32.5479C71.5921 32.3883 72.3103 32.2553 73.0551 32.1489C73.8265 32.0425 74.5979 31.9627 75.3693 31.9095C76.1672 31.8297 76.9253 31.7898 77.6435 31.7898C79.3725 31.7898 80.9153 32.0558 82.2719 32.5878C83.6285 33.0932 84.7723 33.8247 85.7033 34.7823C86.6343 35.7133 87.3392 36.8571 87.818 38.2137C88.3233 39.5703 88.576 41.0865 88.576 42.7622ZM92.9457 27.0418L98.8907 26.0842V32.2686H106.033V37.2162H98.8907V44.5976C98.8907 45.8478 99.1035 46.8453 99.5291 47.5901C99.9813 48.3349 100.872 48.7073 102.202 48.7073C102.841 48.7073 103.492 48.6541 104.157 48.5477C104.849 48.4147 105.474 48.2418 106.033 48.029L106.871 52.6574C106.152 52.95 105.354 53.2027 104.477 53.4155C103.599 53.6283 102.522 53.7347 101.245 53.7347C99.6222 53.7347 98.2789 53.5219 97.2149 53.0963C96.151 52.6441 95.2998 52.0323 94.6614 51.2609C94.023 50.4629 93.5708 49.5053 93.3048 48.3881C93.0654 47.2709 92.9457 46.034 92.9457 44.6774V27.0418ZM129.725 42.7223C129.725 44.3715 129.486 45.8877 129.007 47.2709C128.528 48.6275 127.837 49.7979 126.932 50.7821C126.028 51.7397 124.937 52.4845 123.661 53.0165C122.41 53.5485 121.001 53.8145 119.431 53.8145C117.888 53.8145 116.479 53.5485 115.202 53.0165C113.952 52.4845 112.874 51.7397 111.97 50.7821C111.066 49.7979 110.361 48.6275 109.855 47.2709C109.35 45.8877 109.097 44.3715 109.097 42.7223C109.097 41.0732 109.35 39.5703 109.855 38.2137C110.387 36.8571 111.106 35.7 112.01 34.7424C112.941 33.7848 114.032 33.04 115.282 32.508C116.558 31.976 117.942 31.71 119.431 31.71C120.947 31.71 122.331 31.976 123.581 32.508C124.858 33.04 125.948 33.7848 126.853 34.7424C127.757 35.7 128.462 36.8571 128.967 38.2137C129.473 39.5703 129.725 41.0732 129.725 42.7223ZM123.661 42.7223C123.661 40.887 123.288 39.4506 122.543 38.4132C121.825 37.3492 120.788 36.8172 119.431 36.8172C118.075 36.8172 117.024 37.3492 116.279 38.4132C115.534 39.4506 115.162 40.887 115.162 42.7223C115.162 44.5577 115.534 46.0207 116.279 47.1113C117.024 48.1753 118.075 48.7073 119.431 48.7073C120.788 48.7073 121.825 48.1753 122.543 47.1113C123.288 46.0207 123.661 44.5577 123.661 42.7223Z" fill="#263238"/>
<path d="M152.119 57.4756V40.2609L138.819 28.2158V57.4756H152.119Z" fill="#27CAEA"/>
<path d="M168.014 57.0582V40.0891L155.171 28.2158V57.0582H168.014Z" fill="#FFB04E"/>
</svg>
