<svg width="48" height="50" viewBox="0 0 48 50" fill="none" xmlns="http://www.w3.org/2000/svg">
<path d="M21.9997 0.605068C20.3404 0.960625 18.8589 1.79026 18.3453 2.63966C17.9898 3.23226 17.9108 3.74584 17.7725 6.92612C17.5947 11.0348 17.0219 15.9336 16.291 19.7263C15.5996 23.3214 13.8021 30.3338 13.5453 30.3338C13.5255 30.3338 12.4786 29.8597 11.2539 29.2671C8.52795 27.9634 6.90818 27.5091 4.9526 27.4893C3.82667 27.4893 3.29333 27.5881 2.68097 27.9041C-0.459802 29.5634 -0.874622 33.04 1.6143 36.7536C4.97236 41.771 13.4268 46.2945 23.7182 48.5661C30.8097 50.1464 37.6443 50.2056 41.9703 48.7044C44.9333 47.697 47.1457 45.8599 47.7185 43.9241C48.0938 42.6599 48.0938 42.3043 47.7185 41.0796C46.9284 38.4327 43.8864 37.2475 37.8024 37.2475H34.9381L35.0764 36.3981C35.6492 32.9412 37.1307 28.635 39.0271 24.9016C40.7258 21.5238 42.2073 19.1337 45.3679 14.6892C47.3432 11.9237 47.758 11.2323 47.6 10.936C47.3432 10.4422 47.0667 10.4817 45.8222 11.1731C44.4987 11.904 44.3802 11.904 44.7555 11.1731C46.2173 8.34836 42.1876 4.45696 35.3134 2.10632C34.0295 1.65199 32.0739 1.11865 30.9677 0.881615C28.3405 0.348274 23.7578 0.190247 21.9997 0.605068ZM34.5431 2.89645C35.6295 3.27176 37.032 4.0619 36.6172 4.0619C36.4986 4.0619 35.9258 3.84461 35.3332 3.56806C34.7603 3.31127 33.8122 2.97546 33.2591 2.85695C32.6862 2.71867 32.2122 2.54089 32.2122 2.44212C32.2122 2.22484 33.1011 2.38287 34.5431 2.89645ZM33.1998 3.173C34.1282 3.4693 35.4122 3.98288 36.0641 4.29893C37.3085 4.93104 38.6122 5.81994 38.474 5.95821C38.4345 5.99772 37.6443 5.68167 36.7357 5.26685C33.8517 3.92362 30.1776 2.8767 28.2813 2.8767C27.8467 2.8767 27.4319 2.77793 27.3529 2.65941C27.0763 2.20509 31.343 2.5804 33.1998 3.173ZM20.7553 8.42738C23.4022 10.5607 27.3331 12.1608 33.1998 13.4842C35.1554 13.9385 35.9258 14.0176 38.7308 14.0176C41.5752 14.0176 42.1481 13.9583 43.274 13.583C43.9851 13.346 44.6172 13.1484 44.6963 13.1484C44.7753 13.1484 43.8271 14.6299 42.6024 16.4472C38.4147 22.6498 36.4986 26.4819 34.9184 31.7165C34.2665 33.9091 33.1998 39.1043 33.1998 40.1709C33.1998 41.2376 33.0418 41.2969 30.1973 41.2771C24.8244 41.2179 19.9454 39.8746 15.0268 37.0499C14.0589 36.4968 13.2095 35.9635 13.17 35.8845C13.0712 35.7462 14.0984 32.7832 14.2762 32.5857C14.3157 32.5462 15.8169 33.2573 17.5947 34.1659C22.138 36.4376 27.6492 38.1759 29.7825 37.9981C30.6122 37.9388 30.4936 38.1956 31.1257 34.7783C31.6591 31.7758 33.1208 27.8054 35.432 23.1436C37.7629 18.4028 37.7826 18.2843 36.2814 18.2843C32.2517 18.2843 26.6812 16.704 21.8022 14.1953C18.5034 12.4966 18.6219 12.6348 18.7997 11.0348C18.8984 10.3039 18.9577 9.15825 18.9577 8.48664C18.9775 7.1039 19.0762 6.92612 19.5305 7.38045C19.7281 7.55823 20.2614 8.03231 20.7553 8.42738ZM31.185 8.8817C31.5208 8.96072 31.8171 9.11874 31.8171 9.21751C31.8171 9.53356 30.6319 9.178 28.6171 8.26935C26.8985 7.49897 27.2343 7.3607 29.0121 8.11132C29.8418 8.46688 30.8294 8.82244 31.185 8.8817ZM27.0961 8.30886C29.6442 9.59282 33.7924 10.778 35.7875 10.778C36.2418 10.778 36.5579 10.8768 36.5579 10.9953C36.5579 11.3509 32.7455 11.0743 31.1257 10.6002C29.3479 10.0669 26.4245 8.66442 25.8714 8.09157C25.2788 7.45947 25.4565 7.49897 27.0961 8.30886ZM21.5849 15.4991C24.6862 17.0596 28.3603 18.4028 30.8887 18.8966C32.0739 19.1139 32.2319 19.2127 32.3307 19.6473C32.4887 20.4374 33.1801 21.7609 33.6937 22.2349L34.148 22.6695L33.3579 24.3683C32.1332 27.035 31.422 28.8721 30.7307 31.1239L30.0788 33.1783L29.1109 33.3956C27.8269 33.6919 26.9973 34.3042 26.543 35.2721C26.3454 35.7067 26.0689 36.0623 25.9109 36.0623C24.8639 36.082 19.1355 33.7116 16.2515 32.0523C14.5725 31.1042 14.612 31.4597 15.6787 27.8449C16.5873 24.7831 17.6737 19.667 18.1281 16.4472C18.3256 15.0645 18.4836 13.9385 18.4836 13.9385C18.4836 13.9385 19.8861 14.6299 21.5849 15.4991ZM7.26374 36.2795C12.0045 40.1117 16.4885 42.4031 22.3355 43.9438C26.4837 45.0303 28.0047 45.2278 32.4097 45.2475C36.1826 45.2475 36.5974 45.208 38.5925 44.6945C41.0221 44.0821 41.4962 44.0426 41.4962 44.4377C41.4962 44.8525 39.6987 45.6624 37.4468 46.255C30.5331 48.092 17.9503 45.3463 10.3848 40.3685C8.58721 39.203 4.9526 35.7462 4.9526 35.2129C4.9526 34.6005 5.48594 34.8573 7.26374 36.2795Z" fill="white"/>
<path d="M22.0789 21.05C20.0839 21.6426 18.8394 23.9933 19.3727 26.1661C19.8271 28.102 21.6444 29.5439 23.6197 29.5439C27.5111 29.5439 29.3087 24.8032 26.4642 22.0969C25.279 20.971 23.6395 20.5759 22.0789 21.05ZM24.6666 21.9389C25.0222 22.0377 25.1012 22.176 25.0222 22.492C24.9629 22.7291 25.0814 23.0846 25.3185 23.3809C25.516 23.6575 25.6938 24.092 25.6938 24.3488C25.6938 24.7636 25.6345 24.8032 25.2592 24.7044C25.0024 24.6254 24.6469 24.3488 24.4493 24.092C23.995 23.4994 23.1259 23.4402 23.1259 24.013C23.1259 24.2501 23.3629 24.5266 23.7777 24.7241C25.6345 25.6723 25.8518 26.976 24.2913 27.7859C23.8567 28.0032 23.5209 28.2995 23.5209 28.4773C23.5209 28.6946 23.4024 28.7538 23.1259 28.6748C22.9086 28.6155 22.553 28.497 22.3357 28.4378C22.0394 28.3587 21.9604 28.2205 22.0394 27.9439C22.1184 27.7069 21.9999 27.3711 21.7629 27.055C21.3481 26.5414 21.2098 25.6921 21.5061 25.534C21.7629 25.376 22.5333 25.7711 22.5333 26.0871C22.5333 26.4624 23.3827 26.8772 23.7975 26.7192C24.3308 26.5019 24.153 26.2254 23.0271 25.5143C21.7826 24.7044 21.5061 24.092 22.0394 23.3019C22.2172 23.0056 22.632 22.6895 22.9481 22.571C23.3036 22.4328 23.5209 22.1957 23.5209 21.9784C23.5209 21.7216 23.6197 21.6426 23.8765 21.7216C24.0543 21.7611 24.4296 21.8599 24.6666 21.9389Z" fill="white"/>
</svg>
