<svg width="480" height="100" viewBox="0 0 480 100" fill="none" xmlns="http://www.w3.org/2000/svg">
<path d="M82.144 26.2956L69.3821 41.3743C68.3612 42.5916 69.814 44.3193 71.1884 43.4947L76.0968 40.589C76.7251 40.1963 77.5104 40.3926 77.9424 40.9816L82.0655 46.7932C82.6545 47.5786 83.8325 47.5786 84.3822 46.7932L88.5053 40.9816C88.9373 40.3926 89.7226 40.1963 90.3901 40.589L95.2593 43.4947C96.6337 44.3193 98.0866 42.5916 97.0656 41.3743L84.3037 26.2956C83.754 25.628 82.6937 25.628 82.144 26.2956Z" fill="white"/>
<path d="M162.406 30.5363C159.972 27.6698 155.535 27.6698 153.061 30.5363L138.61 47.6569L135.626 51.1516C134.134 52.9187 131.385 52.9187 129.893 51.1516L89.2514 3.16694C86.11 -0.563459 80.3377 -0.563459 77.1963 3.16694L0.899791 93.2462C-1.18138 95.6808 0.585648 99.4505 3.7663 99.4505H58.8191C62.0391 99.4505 63.7668 95.6808 61.6857 93.2462L50.9264 80.563C49.9447 79.3457 48.2955 78.9137 46.8426 79.4241L34.0022 83.8614C30.3896 85.0787 27.4445 80.7985 29.9184 77.8928L39.264 66.8194L44.6829 60.4188L80.3769 18.2849C81.8691 16.5178 84.5785 16.5178 86.0707 18.2849L121.765 60.4188L124.788 63.9921L127.184 66.8194L130.561 70.7461L130.836 71.0995L136.569 77.8534C139.042 80.7985 136.097 85.0786 132.485 83.8221L131.699 83.5865L122.825 80.5237L122.393 80.3666L120.901 79.8561L119.605 79.4241C118.152 78.9137 116.542 79.3456 115.521 80.5237L104.762 93.2462C102.681 95.6808 104.448 99.4505 107.629 99.4505H162.721C165.901 99.4505 167.629 95.6808 165.587 93.2462L164.095 91.5185L144.579 68.4293L138.807 61.636L138.532 61.3219L144.343 54.4109L154.867 42.0023C156.359 40.196 159.108 40.196 160.6 42.0023L185.456 71.3743L189.383 75.9686L197.237 85.275C199.318 87.7096 197.59 91.44 194.37 91.44L183.846 91.4792C180.666 91.4792 178.938 95.2097 180.98 97.6443L181.373 98.1154C182.079 98.9401 183.14 99.4505 184.239 99.4505H212.669C215.849 99.4505 217.577 95.6808 215.535 93.2462L162.406 30.5363Z" fill="white"/>
<path d="M228.179 45.3008L248.598 20.4445H228.65V15.7324H254.763V19.8162L234.854 44.7118H254.841V49.3845H228.179V45.3008Z" fill="white"/>
<path fill-rule="evenodd" clip-rule="evenodd" d="M280.248 49.8556C278.311 49.8556 276.557 49.5154 274.986 48.8347C273.416 48.1541 272.067 47.2379 270.942 46.086C269.816 44.908 268.939 43.5467 268.311 42.0022C267.709 40.4576 267.408 38.8085 267.408 37.0545C267.408 35.3268 267.709 33.6775 268.311 32.1068C268.939 30.5623 269.816 29.1879 270.942 27.9837C272.067 26.8057 273.416 25.8764 274.986 25.1958C276.557 24.5152 278.324 24.1748 280.287 24.1748C282.225 24.1748 283.965 24.5282 285.51 25.235C287.081 25.9156 288.416 26.8319 289.515 27.9837C290.641 29.1356 291.492 30.4838 292.068 32.0283C292.644 33.5466 292.932 35.1435 292.932 36.8189C292.932 37.2116 292.918 37.5781 292.892 37.9184C292.866 38.2325 292.84 38.5074 292.814 38.743H272.944C273.049 39.8425 273.311 40.8372 273.73 41.7273C274.149 42.6174 274.698 43.3765 275.379 44.0048C276.06 44.6593 276.832 45.1567 277.696 45.497C278.586 45.8635 279.502 46.0467 280.444 46.0467C281.125 46.0467 281.806 45.9551 282.486 45.7719C283.167 45.5886 283.795 45.34 284.371 45.0258C284.947 44.6855 285.458 44.2797 285.903 43.8085C286.321 43.3373 286.662 42.8137 286.924 42.2378L291.4 43.5336C290.536 45.3923 289.123 46.9106 287.159 48.0886C285.17 49.2666 282.866 49.8556 280.248 49.8556ZM287.787 35.1304C287.683 34.0832 287.421 33.1147 287.002 32.2246C286.583 31.3607 286.034 30.6147 285.353 29.9864C284.698 29.3581 283.926 28.8738 283.036 28.5335C282.146 28.1932 281.217 28.023 280.248 28.023C279.253 28.023 278.324 28.1932 277.46 28.5335C276.596 28.8738 275.837 29.3581 275.183 29.9864C274.502 30.6147 273.965 31.3607 273.573 32.2246C273.154 33.1147 272.892 34.0832 272.787 35.1304H287.787Z" fill="white"/>
<path d="M328.86 49.3844H323.637V35.523C323.637 33.167 323.258 31.4654 322.498 30.4183C321.739 29.345 320.653 28.8084 319.239 28.8084C318.48 28.8084 317.721 28.9523 316.962 29.2403C316.176 29.5282 315.457 29.934 314.802 30.4576C314.121 30.9811 313.519 31.5963 312.996 32.3031C312.498 33.0099 312.106 33.7953 311.818 34.6592V49.3844H306.595V24.6068H311.347V29.5937C312.289 27.9183 313.663 26.5963 315.47 25.6277C317.25 24.6591 319.239 24.1748 321.438 24.1748C322.904 24.1748 324.122 24.4497 325.09 24.9995C326.059 25.523 326.818 26.256 327.368 27.1984C327.917 28.1146 328.31 29.1879 328.546 30.4183C328.755 31.6225 328.86 32.9052 328.86 34.2665V49.3844Z" fill="white"/>
<path fill-rule="evenodd" clip-rule="evenodd" d="M344.961 49.3845V15.7324H359.097C360.616 15.7324 362.016 16.0465 363.299 16.6748C364.582 17.3293 365.681 18.167 366.597 19.188C367.513 20.2089 368.233 21.3738 368.757 22.6827C369.281 23.9916 369.542 25.3267 369.542 26.688C369.542 28.1016 369.294 29.476 368.796 30.8111C368.299 32.12 367.605 33.285 366.715 34.3059C365.851 35.3269 364.791 36.1515 363.534 36.7798C362.278 37.3819 360.89 37.6828 359.372 37.6828H350.301V49.3845H344.961ZM350.262 33.0101H359.019C359.778 33.0101 360.472 32.853 361.1 32.5389C361.702 32.2247 362.225 31.7796 362.671 31.2037C363.116 30.6278 363.469 29.9603 363.731 29.2011C363.966 28.442 364.084 27.6042 364.084 26.688C364.084 25.7456 363.94 24.8948 363.652 24.1356C363.364 23.3764 362.972 22.722 362.474 22.1722C361.977 21.6225 361.401 21.1906 360.746 20.8765C360.092 20.5885 359.424 20.4445 358.744 20.4445H350.262V33.0101Z" fill="white"/>
<path fill-rule="evenodd" clip-rule="evenodd" d="M394.436 49.8556C392.525 49.8556 390.771 49.5154 389.174 48.8347C387.603 48.1541 386.255 47.2379 385.129 46.086C384.004 44.908 383.14 43.5467 382.538 42.0022C381.909 40.4576 381.595 38.8085 381.595 37.0545C381.595 35.3268 381.909 33.6775 382.538 32.1068C383.14 30.5623 384.004 29.1879 385.129 27.9837C386.255 26.8057 387.603 25.8764 389.174 25.1958C390.771 24.5152 392.551 24.1748 394.514 24.1748C396.425 24.1748 398.166 24.5282 399.737 25.235C401.307 25.9156 402.643 26.8319 403.742 27.9837C404.842 29.1356 405.692 30.4838 406.294 32.0283C406.87 33.5466 407.158 35.1435 407.158 36.8189C407.158 37.2116 407.145 37.5781 407.119 37.9184C407.067 38.2325 407.027 38.5074 407.001 38.743H387.171C387.25 39.8425 387.498 40.8372 387.917 41.7273C388.362 42.6174 388.925 43.3765 389.606 44.0048C390.286 44.6593 391.059 45.1567 391.923 45.497C392.786 45.8635 393.69 46.0467 394.632 46.0467C395.339 46.0467 396.033 45.9551 396.713 45.7719C397.394 45.5886 398.009 45.34 398.559 45.0258C399.135 44.6855 399.645 44.2797 400.09 43.8085C400.535 43.3373 400.889 42.8137 401.15 42.2378L405.588 43.5336C404.724 45.3923 403.31 46.9106 401.347 48.0886C399.383 49.2666 397.08 49.8556 394.436 49.8556ZM401.975 35.1304C401.896 34.0832 401.635 33.1147 401.19 32.2246C400.771 31.3607 400.234 30.6147 399.58 29.9864C398.899 29.3581 398.127 28.8738 397.263 28.5335C396.373 28.1932 395.43 28.023 394.436 28.023C393.467 28.023 392.551 28.1932 391.687 28.5335C390.823 28.8738 390.051 29.3581 389.37 29.9864C388.716 30.6147 388.179 31.3607 387.76 32.2246C387.368 33.1147 387.119 34.0832 387.014 35.1304H401.975Z" fill="white"/>
<path fill-rule="evenodd" clip-rule="evenodd" d="M427.499 49.8556C426.295 49.8556 425.169 49.6593 424.122 49.2666C423.101 48.8739 422.224 48.3373 421.491 47.6567C420.758 46.9499 420.169 46.1253 419.724 45.1828C419.305 44.2404 419.096 43.2064 419.096 42.0808C419.096 40.9289 419.344 39.8818 419.842 38.9394C420.365 37.9708 421.085 37.1461 422.001 36.4655C422.944 35.7587 424.056 35.222 425.339 34.8555C426.622 34.4628 428.036 34.2665 429.58 34.2665C430.732 34.2665 431.884 34.3712 433.036 34.5807C434.161 34.7901 435.182 35.065 436.098 35.4053V33.7168C436.098 31.8843 435.575 30.4575 434.528 29.4366C433.507 28.3895 432.015 27.8659 430.051 27.8659C428.716 27.8659 427.407 28.1146 426.125 28.612C424.842 29.1094 423.52 29.8162 422.159 30.7324L420.549 27.3947C423.742 25.2481 427.067 24.1748 430.522 24.1748C433.926 24.1748 436.583 25.0518 438.494 26.8057C440.379 28.5335 441.321 31.0204 441.321 34.2665V43.2195C441.321 43.8216 441.426 44.2535 441.635 44.5153C441.871 44.7771 442.25 44.921 442.774 44.9472V49.3844C442.277 49.4891 441.818 49.5546 441.4 49.5808C440.955 49.607 440.562 49.6201 440.222 49.6201C439.227 49.5677 438.468 49.3059 437.944 48.8347C437.42 48.3635 437.093 47.7221 436.962 46.9106L436.805 45.3792C435.706 46.819 434.345 47.9316 432.722 48.7169C431.098 49.4761 429.358 49.8556 427.499 49.8556ZM428.913 46.0467C430.169 46.0467 431.36 45.8111 432.486 45.3399C433.612 44.8948 434.489 44.2535 435.117 43.4158C435.771 42.8399 436.098 42.2378 436.098 41.6095V38.3504C435.208 38.01 434.266 37.7483 433.271 37.565C432.276 37.3556 431.308 37.2509 430.365 37.2509C428.507 37.2509 426.988 37.6566 425.81 38.4681C424.606 39.2796 424.004 40.3399 424.004 41.6488C424.004 42.9053 424.462 43.9525 425.378 44.7902C426.295 45.6279 427.473 46.0467 428.913 46.0467Z" fill="white"/>
<path d="M474.384 49.385L466.492 37.9583L462.369 41.8457V49.385H457.146V14.7905H462.369V36.7409L473.795 24.6466H479.411L469.829 35.0524L480 49.385H474.384Z" fill="white"/>
<path d="M266.777 74.9869C266.777 73.835 266.986 72.6833 267.405 71.5314C267.824 70.3796 268.426 69.3455 269.211 68.4292C269.997 67.513 270.965 66.7669 272.117 66.191C273.269 65.6151 274.565 65.3271 276.005 65.3271C277.732 65.3271 279.225 65.7198 280.481 66.5052C281.712 67.2905 282.641 68.3115 283.269 69.568L280.874 71.1779C280.612 70.602 280.298 70.1177 279.931 69.7251C279.539 69.3062 279.12 68.979 278.675 68.7434C278.23 68.5078 277.772 68.3376 277.301 68.2329C276.829 68.1544 276.358 68.1151 275.887 68.1151C274.918 68.1151 274.054 68.3114 273.295 68.7041C272.536 69.1229 271.908 69.6728 271.41 70.3534C270.887 71.0078 270.507 71.7539 270.272 72.5916C270.01 73.4293 269.879 74.267 269.879 75.1047C269.879 76.0471 270.023 76.9503 270.311 77.8142C270.625 78.6781 271.057 79.4372 271.607 80.0916C272.13 80.7461 272.772 81.2696 273.531 81.6623C274.264 82.055 275.088 82.2513 276.005 82.2513C276.45 82.2513 276.921 82.1859 277.418 82.055C277.916 81.9503 278.387 81.7539 278.832 81.466C279.277 81.2042 279.696 80.877 280.089 80.4843C280.455 80.0916 280.769 79.6073 281.031 79.0314L283.583 80.4843C283.269 81.2173 282.837 81.8587 282.287 82.4085C281.738 82.9582 281.109 83.4293 280.403 83.822C279.722 84.2147 278.989 84.5027 278.204 84.686C277.418 84.8954 276.646 85 275.887 85C274.526 85 273.295 84.7121 272.196 84.1362C271.096 83.5341 270.141 82.7749 269.329 81.8587C268.518 80.9162 267.889 79.8429 267.444 78.6387C266.999 77.4607 266.777 76.2434 266.777 74.9869Z" fill="white"/>
<path fill-rule="evenodd" clip-rule="evenodd" d="M295.088 84.8429L302.903 65.4448H305.416L313.191 84.8429H309.931L307.85 79.5418H300.389L298.348 84.8429H295.088ZM304.159 68.8611L300.939 77.3035H307.261L304.159 68.8611Z" fill="white"/>
<path fill-rule="evenodd" clip-rule="evenodd" d="M326.464 84.8429V65.4448H334.593C335.457 65.4448 336.255 65.628 336.988 65.9945C337.721 66.361 338.349 66.8453 338.873 67.4474C339.423 68.0233 339.841 68.6909 340.129 69.4501C340.417 70.2092 340.561 70.9815 340.561 71.7668C340.561 72.5783 340.43 73.3637 340.169 74.1229C339.881 74.882 339.475 75.5496 338.951 76.1255C338.454 76.7276 337.852 77.1988 337.145 77.5391C336.412 77.9056 335.614 78.0889 334.75 78.0889H329.488V84.8429H326.464ZM329.527 75.3794H334.593C335.012 75.3794 335.404 75.2878 335.771 75.1045C336.137 74.9213 336.438 74.6726 336.674 74.3585C336.936 74.0182 337.145 73.6385 337.302 73.2197C337.433 72.7747 337.499 72.2904 337.499 71.7668C337.499 71.2171 337.42 70.7197 337.263 70.2746C337.106 69.8558 336.87 69.4762 336.556 69.1359C336.268 68.8218 335.941 68.5862 335.574 68.4291C335.208 68.2458 334.828 68.1542 334.436 68.1542H329.527V75.3794Z" fill="white"/>
<path d="M354.303 84.8427V65.4839H357.366V84.8427H354.303Z" fill="white"/>
<path d="M386.856 68.1542H380.416V84.8429H377.353V68.1542H370.914V65.4448H386.856V68.1542Z" fill="white"/>
<path fill-rule="evenodd" clip-rule="evenodd" d="M396.595 84.8429L404.37 65.4448H406.883L414.658 84.8429H411.438L409.357 79.5418H401.857L399.854 84.8429H396.595ZM405.665 68.8611L402.446 77.3035H408.768L405.665 68.8611Z" fill="white"/>
<path d="M427.929 84.8429V65.4448H430.992V82.1335H441.398V84.8429H427.929Z" fill="white"/>
</svg>
