<svg width="217" height="100" viewBox="0 0 217 100" fill="none" xmlns="http://www.w3.org/2000/svg">
<path d="M82.144 26.2956L69.3821 41.3743C68.3612 42.5916 69.814 44.3193 71.1884 43.4947L76.0968 40.589C76.7251 40.1963 77.5104 40.3926 77.9424 40.9816L82.0655 46.7932C82.6545 47.5786 83.8325 47.5786 84.3822 46.7932L88.5053 40.9816C88.9373 40.3926 89.7226 40.1963 90.3901 40.589L95.2593 43.4947C96.6337 44.3193 98.0866 42.5916 97.0656 41.3743L84.3037 26.2956C83.754 25.628 82.6937 25.628 82.144 26.2956Z" fill="white"/>
<path d="M162.406 30.5363C159.972 27.6698 155.535 27.6698 153.061 30.5363L138.61 47.6569L135.626 51.1516C134.134 52.9187 131.385 52.9187 129.893 51.1516L89.2514 3.16694C86.11 -0.563459 80.3377 -0.563459 77.1963 3.16694L0.899791 93.2462C-1.18138 95.6808 0.585648 99.4505 3.7663 99.4505H58.8191C62.0391 99.4505 63.7668 95.6808 61.6857 93.2462L50.9264 80.563C49.9447 79.3457 48.2955 78.9137 46.8426 79.4241L34.0022 83.8614C30.3896 85.0787 27.4445 80.7985 29.9184 77.8928L39.264 66.8194L44.6829 60.4188L80.3769 18.2849C81.8691 16.5178 84.5785 16.5178 86.0707 18.2849L121.765 60.4188L124.788 63.9921L127.184 66.8194L130.561 70.7461L130.836 71.0995L136.569 77.8534C139.042 80.7985 136.097 85.0786 132.485 83.8221L131.699 83.5865L122.825 80.5237L122.393 80.3666L120.901 79.8561L119.605 79.4241C118.152 78.9137 116.542 79.3456 115.521 80.5237L104.762 93.2462C102.681 95.6808 104.448 99.4505 107.629 99.4505H162.721C165.901 99.4505 167.629 95.6808 165.587 93.2462L164.095 91.5185L144.579 68.4293L138.807 61.636L138.532 61.3219L144.343 54.4109L154.867 42.0023C156.359 40.196 159.108 40.196 160.6 42.0023L185.456 71.3743L189.383 75.9686L197.237 85.275C199.318 87.7096 197.59 91.44 194.37 91.44L183.846 91.4792C180.666 91.4792 178.938 95.2097 180.98 97.6443L181.373 98.1154C182.079 98.9401 183.14 99.4505 184.239 99.4505H212.669C215.849 99.4505 217.577 95.6808 215.535 93.2462L162.406 30.5363Z" fill="white"/>
</svg>
