<svg width="255" height="62" viewBox="0 0 255 62" fill="none" xmlns="http://www.w3.org/2000/svg">
<path d="M45.1405 18.529L38.4678 26.4035C38.3548 26.5366 38.2927 26.7054 38.2925 26.8799C38.2923 27.0545 38.354 27.2234 38.4666 27.3568C38.5792 27.4901 38.7355 27.5792 38.9076 27.6081C39.0797 27.6371 39.2565 27.6041 39.4066 27.5149L41.9664 25.9906C42.1256 25.8953 42.3149 25.8635 42.4966 25.9016C42.6782 25.9396 42.8388 26.0448 42.9464 26.196L45.1055 29.2407C45.1737 29.3369 45.2639 29.4154 45.3686 29.4696C45.4734 29.5238 45.5896 29.5521 45.7075 29.5521C45.8254 29.5521 45.9416 29.5238 46.0463 29.4696C46.1511 29.4154 46.2413 29.3369 46.3094 29.2407L48.4666 26.196C48.5741 26.0448 48.7347 25.9396 48.9163 25.9016C49.098 25.8635 49.2873 25.8953 49.4465 25.9906L52.0063 27.5149C52.1564 27.6054 52.3338 27.6395 52.5067 27.6111C52.6796 27.5827 52.8368 27.4936 52.95 27.3599C53.0632 27.2261 53.1251 27.0565 53.1246 26.8812C53.1241 26.706 53.0612 26.5366 52.9472 26.4035L46.2704 18.5207C46.2002 18.4394 46.1131 18.3743 46.0152 18.3299C45.9174 18.2855 45.811 18.2629 45.7035 18.2637C45.5961 18.2645 45.49 18.2886 45.3928 18.3344C45.2956 18.3802 45.2095 18.4466 45.1405 18.529Z" fill="white"/>
<path d="M87.1409 20.7541C86.84 20.3988 86.4654 20.1134 86.043 19.9176C85.6207 19.7218 85.1607 19.6203 84.6951 19.6203C84.2296 19.6203 83.7696 19.7218 83.3472 19.9176C82.9249 20.1134 82.5502 20.3988 82.2494 20.7541L74.6871 29.6908L73.1196 31.5398C72.9354 31.7574 72.706 31.9323 72.4473 32.0523C72.1887 32.1722 71.907 32.2343 71.6219 32.2343C71.3368 32.2343 71.0551 32.1722 70.7965 32.0523C70.5378 31.9323 70.3084 31.7574 70.1242 31.5398L48.8611 6.42052C48.4729 5.96221 47.9895 5.59397 47.4446 5.3414C46.8996 5.08883 46.3062 4.95801 45.7055 4.95801C45.1049 4.95801 44.5115 5.08883 43.9665 5.3414C43.4216 5.59397 42.9382 5.96221 42.55 6.42052L2.63693 53.5589C2.39478 53.8447 2.23941 54.1938 2.18915 54.565C2.13889 54.9362 2.19583 55.314 2.35325 55.6539C2.51068 55.9938 2.76203 56.2816 3.07765 56.4834C3.39328 56.6851 3.76001 56.7924 4.1346 56.7925H32.9415C33.3163 56.7928 33.6833 56.6858 33.9992 56.4842C34.3151 56.2826 34.5668 55.9949 34.7245 55.6549C34.8822 55.3149 34.9393 54.9369 34.8891 54.5655C34.8389 54.1941 34.6835 53.8448 34.4412 53.5589L28.8142 46.9088C28.5586 46.6066 28.2176 46.3887 27.8359 46.2838C27.4542 46.1789 27.0497 46.192 26.6756 46.3212L19.9494 48.6407C18.0635 49.2919 16.5206 47.0382 17.8108 45.5139L22.7167 39.7184L25.5498 36.3882L44.2058 14.33C44.3904 14.1123 44.6201 13.9374 44.8791 13.8174C45.1381 13.6974 45.4201 13.6353 45.7055 13.6353C45.991 13.6353 46.273 13.6974 46.532 13.8174C46.791 13.9374 47.0207 14.1123 47.2053 14.33L65.8778 36.3882L67.4494 38.2372L68.7087 39.7163L70.4673 41.7871L70.6091 41.9577L73.6126 45.5097C74.9028 47.0341 73.3579 49.2878 71.4719 48.6365L71.0754 48.4989L66.4222 46.8965L66.2044 46.8184L65.4258 46.5534L64.7499 46.3212C64.3748 46.1905 63.9689 46.1765 63.5857 46.281C63.2024 46.3856 62.8599 46.6037 62.6031 46.9067L56.9678 53.5589C56.7257 53.8447 56.5703 54.1938 56.52 54.565C56.4698 54.9362 56.5267 55.314 56.6841 55.6539C56.8416 55.9938 57.0929 56.2816 57.4085 56.4834C57.7242 56.6851 58.0909 56.7924 58.4655 56.7925H87.2929C87.6677 56.7928 88.0347 56.6858 88.3506 56.4842C88.6666 56.2826 88.9182 55.9949 89.0759 55.6549C89.2336 55.3149 89.2907 54.9369 89.2405 54.5655C89.1903 54.1941 89.0349 53.8448 88.7926 53.5589L88.0243 52.6529L77.8057 40.5792L74.7857 37.0291L74.646 36.8586L77.6968 33.247L83.2006 26.7407C83.3847 26.5223 83.6144 26.3468 83.8734 26.2264C84.1324 26.1061 84.4146 26.0437 84.7003 26.0437C84.9859 26.0437 85.2681 26.1061 85.5272 26.2264C85.7862 26.3468 86.0158 26.5223 86.2 26.7407L99.2064 42.12L101.246 44.5154L105.355 49.3864C105.597 49.672 105.753 50.0206 105.803 50.3915C105.853 50.7623 105.797 51.1398 105.64 51.4796C105.483 51.8193 105.232 52.1072 104.917 52.3092C104.602 52.5112 104.236 52.6191 103.862 52.6201L98.3456 52.6324C97.9716 52.6332 97.6056 52.7409 97.2907 52.9427C96.9757 53.1445 96.725 53.432 96.5679 53.7715C96.4108 54.1109 96.3539 54.4882 96.4039 54.8589C96.4538 55.2295 96.6086 55.5782 96.85 55.8639L97.0555 56.1023C97.2403 56.3197 97.4701 56.4944 97.729 56.6143C97.988 56.7342 98.2699 56.7964 98.5552 56.7966H113.423C113.798 56.7965 114.164 56.6892 114.48 56.4875C114.796 56.2857 115.047 55.998 115.204 55.658C115.362 55.3181 115.419 54.9403 115.368 54.5691C115.318 54.1979 115.163 53.8488 114.921 53.563L87.1409 20.7541Z" fill="white"/>
<path d="M121.536 28.4776L132.219 15.4609H121.782V13.0059H135.444V15.1383L125.03 28.1551H135.493V30.6101H121.536V28.4776Z" fill="white"/>
<path d="M148.784 30.8586C147.839 30.8707 146.902 30.689 146.031 30.3245C145.234 29.9895 144.513 29.496 143.913 28.8741C143.323 28.2591 142.86 27.5347 142.548 26.7416C142.223 25.9211 142.059 25.0459 142.064 24.1633C142.06 23.2769 142.224 22.3978 142.548 21.5727C142.86 20.7724 143.323 20.0399 143.913 19.4156C144.51 18.7872 145.231 18.2893 146.031 17.9529C146.91 17.5868 147.856 17.405 148.808 17.4187C149.75 17.4056 150.684 17.5918 151.549 17.9651C152.335 18.3064 153.046 18.7993 153.642 19.4156C154.222 20.0214 154.674 20.7384 154.969 21.5234C155.276 22.3269 155.431 23.1801 155.427 24.04C155.427 24.2455 155.427 24.4242 155.403 24.5968C155.378 24.7693 155.37 24.9152 155.354 25.0303H144.964C145.005 25.5721 145.144 26.1019 145.375 26.5937C145.589 27.0437 145.882 27.451 146.242 27.7955C146.953 28.4741 147.899 28.8517 148.882 28.8494C149.246 28.8494 149.608 28.8038 149.961 28.7138C150.304 28.6269 150.634 28.4928 150.941 28.3153C151.235 28.1455 151.502 27.9329 151.734 27.6846C151.96 27.443 152.145 27.1652 152.28 26.8628L154.61 27.5325C154.135 28.54 153.36 29.376 152.391 29.9259C151.297 30.5632 150.049 30.886 148.784 30.8586ZM152.726 23.1464C152.681 22.6218 152.542 22.1096 152.315 21.6343C152.106 21.1919 151.815 20.7926 151.458 20.4572C151.105 20.1306 150.693 19.874 150.244 19.7011C149.778 19.5181 149.282 19.4254 148.781 19.4279C147.799 19.4223 146.851 19.7894 146.129 20.4551C145.774 20.7889 145.487 21.1887 145.285 21.6323C145.067 22.1097 144.933 22.6212 144.888 23.1443L152.726 23.1464Z" fill="white"/>
<path d="M174.221 30.6104H171.486V23.346C171.486 22.1216 171.288 21.2314 170.891 20.6753C170.697 20.4059 170.439 20.1894 170.14 20.0458C169.841 19.9022 169.511 19.8361 169.179 19.8536C168.769 19.8558 168.362 19.9316 167.978 20.0775C167.571 20.2272 167.19 20.44 166.85 20.7082C166.497 20.9871 166.184 21.3126 165.919 21.6758C165.645 22.0511 165.433 22.467 165.288 22.9084V30.6186H162.56V17.6512H165.04V20.2398C165.544 19.3558 166.293 18.6366 167.197 18.1689C168.158 17.6602 169.232 17.4003 170.32 17.4129C170.986 17.388 171.648 17.5336 172.242 17.8361C172.735 18.1064 173.146 18.5045 173.432 18.9886C173.736 19.509 173.945 20.0795 174.048 20.6733C174.166 21.3406 174.224 22.0171 174.221 22.6948V30.6104Z" fill="white"/>
<path d="M182.65 30.6103V13.0061H190.046C190.806 12.9989 191.558 13.1691 192.24 13.5032C192.893 13.8218 193.478 14.2633 193.964 14.8037C194.445 15.3443 194.827 15.9653 195.092 16.6383C195.362 17.3041 195.501 18.0154 195.503 18.7337C195.506 20.1922 194.987 21.6037 194.04 22.7132C193.575 23.2526 193.006 23.6916 192.366 24.0033C191.69 24.3309 190.947 24.4961 190.196 24.4861H185.436V30.6103H182.65ZM185.428 22.0311H190.015C190.39 22.0366 190.76 21.9513 191.094 21.7825C191.415 21.6146 191.696 21.3782 191.916 21.0901C192.155 20.7763 192.34 20.4242 192.462 20.0486C192.601 19.6242 192.67 19.1802 192.668 18.7337C192.674 18.2776 192.599 17.8239 192.446 17.3943C192.308 17.0157 192.098 16.6671 191.829 16.3671C191.576 16.0852 191.267 15.8574 190.923 15.6973C190.594 15.5416 190.234 15.461 189.87 15.4611H185.432L185.428 22.0311Z" fill="white"/>
<path d="M208.536 30.8586C207.591 30.8707 206.655 30.689 205.783 30.3245C204.986 29.989 204.265 29.4956 203.663 28.8741C203.075 28.2585 202.612 27.5342 202.301 26.7416C201.976 25.9211 201.811 25.0459 201.816 24.1633C201.812 23.2769 201.977 22.3978 202.301 21.5727C202.612 20.7729 203.075 20.0405 203.663 19.4156C204.262 18.7876 204.983 18.2898 205.783 17.9529C206.663 17.5868 207.608 17.405 208.561 17.4187C209.502 17.4056 210.436 17.5918 211.301 17.9651C212.088 18.3068 212.801 18.8004 213.397 19.4176C213.977 20.0234 214.428 20.7405 214.724 21.5254C215.03 22.329 215.185 23.1822 215.182 24.0421C215.182 24.2475 215.182 24.4263 215.157 24.5988C215.133 24.7714 215.124 24.9173 215.108 25.0323H204.719C204.76 25.5741 204.899 26.1039 205.13 26.5957C205.343 27.0458 205.637 27.4531 205.997 27.7976C206.708 28.4762 207.654 28.8538 208.637 28.8515C209 28.8514 209.363 28.8059 209.715 28.7159C210.059 28.629 210.389 28.4949 210.695 28.3173C210.989 28.1476 211.257 27.935 211.488 27.6866C211.715 27.445 211.899 27.1673 212.035 26.8649L214.364 27.5346C213.889 28.5421 213.114 29.378 212.146 29.928C211.051 30.5649 209.802 30.887 208.536 30.8586ZM212.478 23.1464C212.433 22.6218 212.294 22.1096 212.068 21.6343C211.858 21.1919 211.567 20.7926 211.211 20.4572C210.858 20.1306 210.446 19.874 209.997 19.7011C209.531 19.5181 209.034 19.4254 208.534 19.4279C207.552 19.4223 206.604 19.7894 205.882 20.4551C205.526 20.7889 205.24 21.1887 205.037 21.6323C204.819 22.1097 204.685 22.6212 204.641 23.1443L212.478 23.1464Z" fill="white"/>
<path d="M225.817 30.8598C225.22 30.8649 224.628 30.7597 224.069 30.5496C223.555 30.3569 223.083 30.0659 222.68 29.693C222.292 29.3289 221.979 28.891 221.762 28.4048C221.537 27.8972 221.423 27.3474 221.427 26.7921C221.419 26.2142 221.556 25.6436 221.826 25.1322C222.1 24.6226 222.485 24.1816 222.953 23.842C223.477 23.4605 224.064 23.1752 224.687 22.9997C225.409 22.7935 226.157 22.6932 226.908 22.7018C227.515 22.7015 228.121 22.7551 228.718 22.8621C229.267 22.9579 229.806 23.1036 230.329 23.2976V22.4039C230.329 21.4466 230.056 20.6967 229.507 20.1605C228.959 19.6243 228.176 19.3552 227.151 19.3552C226.448 19.3544 225.751 19.4847 225.096 19.7394C224.367 20.0279 223.672 20.3979 223.025 20.8426L222.183 19.1066C223.851 17.9835 225.587 17.4213 227.389 17.4199C229.191 17.4186 230.579 17.8732 231.553 18.784C232.545 19.6948 233.041 21.0008 233.043 22.7018V27.3879C233.021 27.6244 233.082 27.8611 233.215 28.0577C233.295 28.1324 233.389 28.1904 233.491 28.2285C233.593 28.2666 233.702 28.2839 233.811 28.2795V30.6113C233.569 30.6574 233.325 30.6903 233.08 30.7099C232.856 30.7263 232.654 30.7346 232.463 30.7346C232.028 30.7387 231.604 30.5937 231.262 30.3237C230.981 30.0624 230.801 29.7114 230.752 29.3314L230.678 28.5096C230.115 29.257 229.379 29.8569 228.533 30.2579C227.684 30.6585 226.756 30.8642 225.817 30.8598ZM226.561 28.8506C227.202 28.8545 227.838 28.7324 228.433 28.4911C228.973 28.2847 229.448 27.9379 229.809 27.4865C229.96 27.3781 230.085 27.2374 230.175 27.0746C230.265 26.9119 230.317 26.7312 230.329 26.5456V24.8343C229.852 24.6477 229.358 24.5067 228.854 24.4131C228.352 24.3146 227.841 24.2644 227.329 24.2632C226.354 24.2632 225.556 24.4741 224.936 24.8959C224.649 25.0705 224.413 25.3167 224.25 25.6102C224.087 25.9038 224.004 26.2346 224.007 26.5703C224.002 26.8768 224.064 27.1808 224.188 27.4611C224.312 27.7415 224.496 27.9913 224.726 28.1932C225.23 28.6405 225.888 28.876 226.561 28.8506Z" fill="white"/>
<path d="M250.361 30.6111L246.222 24.6348L244.065 26.6687V30.6111H241.336V12.5117H244.065V23.9918L250.039 17.6683H252.991L247.982 23.0981L253.287 30.6111H250.361Z" fill="white"/>
<path d="M141.73 44.0094C141.732 43.3881 141.844 42.772 142.059 42.1892C142.274 41.5937 142.596 41.0423 143.008 40.5621C143.431 40.0749 143.948 39.6786 144.529 39.3973C145.166 39.0947 145.865 38.9436 146.571 38.9556C147.391 38.9341 148.201 39.1479 148.904 39.5719C149.534 39.9557 150.042 40.5098 150.369 41.1702L149.112 42.0125C148.992 41.7286 148.823 41.4679 148.613 41.2421C148.425 41.0417 148.205 40.8731 147.964 40.7429C147.737 40.6213 147.494 40.5321 147.242 40.4779C147.003 40.4271 146.758 40.4009 146.513 40.3998C146.039 40.3902 145.571 40.5005 145.151 40.7203C144.762 40.9276 144.423 41.218 144.159 41.5708C143.89 41.9264 143.687 42.3271 143.559 42.7542C143.426 43.1799 143.356 43.6229 143.353 44.069C143.352 44.5501 143.432 45.028 143.59 45.4824C143.738 45.914 143.963 46.3155 144.253 46.6678C144.533 47.0068 144.878 47.2863 145.268 47.4895C145.664 47.6965 146.105 47.8023 146.552 47.7977C146.805 47.796 147.056 47.765 147.302 47.7053C147.563 47.6439 147.813 47.5427 148.044 47.4053C148.284 47.2622 148.503 47.0865 148.695 46.8835C148.902 46.6612 149.071 46.4057 149.194 46.1275L150.521 46.8835C150.362 47.2595 150.132 47.6014 149.843 47.8902C149.554 48.1803 149.224 48.4279 148.865 48.6256C148.138 49.0234 147.324 49.2351 146.495 49.242C145.824 49.2501 145.162 49.0927 144.568 48.7838C143.995 48.4857 143.484 48.0813 143.062 47.5923C142.637 47.0987 142.303 46.5331 142.078 45.9221C141.847 45.3108 141.729 44.6627 141.73 44.0094Z" fill="white"/>
<path d="M156.551 49.1501L160.635 39.0137H161.948L166.018 49.1501H164.319L163.232 46.3952H159.329L158.273 49.1501H156.551ZM161.291 40.7969L159.606 45.2098H162.92L161.291 40.7969Z" fill="white"/>
<path d="M172.956 49.1503V39.0138H177.21C177.648 39.0093 178.081 39.1071 178.474 39.2994C178.851 39.4817 179.188 39.7365 179.466 40.0493C179.743 40.3601 179.963 40.7176 180.115 41.1052C180.271 41.4883 180.351 41.8977 180.351 42.3112C180.352 43.1512 180.053 43.9639 179.509 44.6039C179.241 44.9136 178.914 45.1658 178.546 45.3455C178.156 45.5333 177.729 45.6283 177.297 45.6229H174.554V49.1503H172.956ZM174.554 44.2197H177.196C177.41 44.2221 177.621 44.1735 177.812 44.078C178 43.9822 178.164 43.8453 178.291 43.6774C178.43 43.4972 178.536 43.2942 178.605 43.0774C178.684 42.8333 178.723 42.578 178.72 42.3214C178.724 42.0589 178.68 41.7979 178.591 41.551C178.51 41.3324 178.389 41.1309 178.233 40.9573C178.088 40.7957 177.911 40.665 177.714 40.5731C177.521 40.4829 177.31 40.4366 177.097 40.4376H174.542L174.554 44.2197Z" fill="white"/>
<path d="M187.534 49.1494V39.0273H189.132V49.1494H187.534Z" fill="white"/>
<path d="M204.563 40.4271H201.191V49.1501H199.593V40.4271H196.209V39.0137H204.563V40.4271Z" fill="white"/>
<path d="M209.649 49.1501L213.732 39.0137H215.046L219.114 49.1501H217.415L216.33 46.3952H212.427L211.371 49.1501H209.649ZM214.389 40.7969L212.704 45.2098H216.016L214.389 40.7969Z" fill="white"/>
<path d="M226.054 49.1501V39.0137H227.652V47.7367H233.092V49.1501H226.054Z" fill="white"/>
</svg>
