<svg width="52" height="51" viewBox="0 0 52 51" fill="none" xmlns="http://www.w3.org/2000/svg">
<path d="M15.875 21.7829H14.328V18.5039C14.3885 15.4291 11.7834 12.6603 8.70309 12.7126C5.60168 12.7126 3.07826 15.3106 3.07826 18.5039V21.7829H1.53125C1.06529 21.7829 0.6875 22.1607 0.6875 22.6267V34.1706C0.6875 34.6369 1.06529 35.0143 1.53125 35.0143H4.67183V49.8376C4.67183 50.304 5.04962 50.6814 5.51558 50.6814H11.8907C12.3566 50.6814 12.7344 50.304 12.7344 49.8376V35.0143H15.875C16.341 35.0143 16.7188 34.6369 16.7188 34.1706V22.6267C16.7188 22.1607 16.341 21.7829 15.875 21.7829ZM4.76576 18.5039C4.94538 13.044 12.501 13.1184 12.6405 18.504C12.6405 18.5039 12.6405 21.7829 12.6405 21.7829H4.76576V18.5039ZM11.0469 48.9939H6.35933V35.0143H11.0469V48.9939ZM15.0312 33.3268C11.5094 33.3268 5.89688 33.3268 2.375 33.3268V23.4704H15.0312V33.3268Z" fill="white"/>
<path d="M50.4688 16.657H47.9376V11.9673C47.9376 11.5014 47.5598 11.1236 47.0938 11.1236H44.2165V0.900532C44.2165 0.434574 43.8387 0.0567816 43.3728 0.0567816C41.1889 0.0737608 22.1182 0.0445436 19.4273 0.0568188C18.9613 0.0567816 18.5835 0.434574 18.5835 0.900532V34.2962C18.5835 38.2134 22.0508 41.4005 26.3124 41.4005C26.4436 41.3724 46.4294 41.4547 46.5415 41.3719C49.05 41.6347 51.3349 39.6911 51.3126 37.3293C51.3126 37.3293 51.3126 17.5007 51.3126 17.5007C51.3126 17.0348 50.9348 16.657 50.4688 16.657ZM46.2501 12.8111V16.657H44.2165V12.8111H46.2501ZM26.3124 39.713C22.981 39.713 20.271 37.2831 20.271 34.2962V1.74428H42.529C42.5289 10.4096 42.5291 28.5732 42.529 37.3252C42.5346 38.19 42.8575 39.0215 43.3662 39.713H26.3124ZM49.6251 37.3293C49.6493 38.7781 48.0869 39.927 46.5208 39.6834C45.9418 39.6049 45.4128 39.3742 44.9956 38.9871C44.9898 38.9813 44.9836 38.9764 44.9775 38.9706C44.4938 38.5438 44.2165 37.944 44.2165 37.3252V18.3445H49.6251V37.3293Z" fill="white"/>
<path d="M36.9688 5.11914H25.1562C24.6903 5.11914 24.3125 5.49693 24.3125 5.96289V10.1816C24.3125 10.6476 24.6903 11.0254 25.1562 11.0254H36.9688C37.4347 11.0254 37.8125 10.6476 37.8125 10.1816V5.96289C37.8125 5.49693 37.4347 5.11914 36.9688 5.11914ZM36.125 9.33789H26V6.80664H36.125V9.33789Z" fill="white"/>
<path d="M36.125 16.9316C37.2325 16.9133 37.2351 15.263 36.125 15.2441L31.0625 15.2441C30.5965 15.2441 30.2188 15.6219 30.2188 16.0879C30.2188 16.5538 30.5965 16.9316 31.0625 16.9316H36.125Z" fill="white"/>
<path d="M36.9687 19.4629H25.1562C24.0508 19.4806 24.0443 21.1313 25.1562 21.1504L36.9687 21.1504C38.074 21.1327 38.0806 19.482 36.9687 19.4629Z" fill="white"/>
<path d="M36.9687 23.6816H27.6875C26.5813 23.6996 26.5763 25.3501 27.6875 25.3691L36.9687 25.3691C38.0749 25.3512 38.08 23.7006 36.9687 23.6816Z" fill="white"/>
<path d="M32.75 28.7441H25.1562C24.6903 28.7441 24.3125 29.1215 24.3125 29.5879V36.3379C24.3125 36.8043 24.6903 37.1816 25.1562 37.1816H32.75C33.216 37.1816 33.5938 36.8043 33.5938 36.3379V29.5879C33.5938 29.1215 33.216 28.7441 32.75 28.7441ZM31.9062 35.4941H26V30.4316H31.9062V35.4941Z" fill="white"/>
</svg>
