<svg width="55" height="56" viewBox="0 0 55 56" fill="none" xmlns="http://www.w3.org/2000/svg">
<g clip-path="url(#clip0_87690_3948)">
<path d="M52.7203 17.8797C52.603 14.6768 50.0748 12.199 46.0141 11.1876C47.2205 10.095 47.9796 8.51689 47.9796 6.76452C47.9796 3.47612 45.3043 0.800781 42.0159 0.800781C38.7275 0.800781 36.0523 3.47612 36.0523 6.76452C36.0523 8.51657 36.8111 10.0945 38.0171 11.1871C35.6091 11.7901 33.689 12.9275 32.5374 14.4384C31.2125 13.2136 29.4426 12.4634 27.5003 12.4634C25.558 12.4634 23.7885 13.2134 22.4636 14.438C21.314 12.928 19.3945 11.791 16.9859 11.1876C18.1922 10.095 18.9513 8.51689 18.9513 6.76463C18.9513 3.47623 16.2761 0.800889 12.9877 0.800889C9.69931 0.800889 7.02396 3.47623 7.02396 6.76463C7.02396 8.51668 7.78279 10.0946 8.98871 11.1871C4.92677 12.198 2.39752 14.6762 2.28022 17.8797C2.27989 17.8875 2.27979 17.8954 2.27979 17.9033V22.6201C2.27979 22.9759 2.56811 23.2641 2.92378 23.2641H20.8849C22.116 25.6689 24.6181 27.32 27.5003 27.32C30.3825 27.32 32.8846 25.6691 34.1157 23.2641H52.0768C52.4326 23.2641 52.7208 22.9758 52.7208 22.6201V17.9033C52.7208 17.8955 52.7208 17.8876 52.7204 17.8797H52.7203ZM37.3402 6.76463C37.3402 4.1865 39.4378 2.08898 42.0159 2.08898C44.594 2.08898 46.6915 4.1865 46.6915 6.76463C46.6915 9.34275 44.594 11.4433 42.0159 11.4433C39.4378 11.4433 37.3402 9.34437 37.3402 6.76463ZM8.31195 6.76463C8.31195 4.1865 10.4095 2.08898 12.9876 2.08898C15.5657 2.08898 17.6632 4.1865 17.6632 6.76463C17.6632 9.34275 15.5657 11.4433 12.9876 11.4433C10.4095 11.4433 8.31195 9.34437 8.31195 6.76463ZM3.56777 21.9761V17.9153C3.70087 14.4897 7.2054 12.7215 10.5122 12.1908C11.2668 12.5368 12.1046 12.7313 12.9876 12.7313C13.8706 12.7313 14.7084 12.5368 15.4629 12.1908C18.2777 12.6388 20.4715 13.7976 21.58 15.4113C20.6344 16.6578 20.072 18.21 20.072 19.8917C20.072 20.6153 20.1779 21.3143 20.3718 21.976H3.56788L3.56777 21.9761ZM27.5002 26.032C24.1144 26.032 21.3598 23.2775 21.3598 19.8918C21.3598 16.5061 24.1144 13.7515 27.5002 13.7515C30.886 13.7515 33.6405 16.5061 33.6405 19.8918C33.6405 23.2775 30.886 26.032 27.5002 26.032ZM51.4326 21.9761H34.6287C34.8225 21.3144 34.9285 20.6154 34.9285 19.8918C34.9285 18.2103 34.3662 16.6582 33.4207 15.4119C34.5318 13.7971 36.7264 12.6379 39.5397 12.1906C40.2945 12.5368 41.1327 12.7314 42.0158 12.7314C42.8989 12.7314 43.736 12.5371 44.4903 12.1913C47.7965 12.7224 51.2994 14.4905 51.4325 17.9153V21.9761H51.4326ZM52.0766 26.3548H46.1388C45.7832 26.3548 45.4949 26.6432 45.4949 26.9988V28.7422H40.2213L32.8637 27.647C31.528 27.4468 30.3059 27.7613 29.2315 28.5822L27.4686 29.9293L25.7521 28.6047C24.6727 27.7748 23.4443 27.4562 22.1013 27.6559L14.7823 28.7422H9.50552V26.9988C9.50552 26.643 9.2172 26.3548 8.86152 26.3548H2.92389C2.56821 26.3548 2.27989 26.6432 2.27989 26.9988V43.0888C2.27989 43.4446 2.56821 43.7328 2.92389 43.7328H8.86163C9.2173 43.7328 9.50562 43.4445 9.50562 43.0888V41.3454H10.6704C11.1596 41.3454 11.5737 41.4785 11.9756 41.7656L12.1827 41.9125L11.32 42.7738C10.4145 43.6811 10.5667 45.1482 11.6819 46.2623C12.203 46.7827 12.8816 47.1514 13.5573 47.2242C13.5295 47.9404 13.858 48.7248 14.5222 49.389C15.1606 50.0274 15.91 50.3559 16.6032 50.3559C16.8624 50.3559 17.1135 50.3094 17.3482 50.2166C17.4887 50.704 17.7799 51.1933 18.2171 51.6306C18.8552 52.2686 19.6042 52.5969 20.2971 52.5969C20.515 52.5969 20.7266 52.5625 20.9281 52.497C21.0619 53.0046 21.3597 53.5162 21.8153 53.9714C22.4537 54.6093 23.2029 54.9373 23.8955 54.9373C24.422 54.9373 24.916 54.7476 25.3036 54.36L27.0519 52.6117C27.076 52.5877 27.0987 52.563 27.1213 52.5382L29.8281 54.4821C30.1765 54.7329 30.5694 54.8535 30.9732 54.8535C31.7629 54.8535 32.5929 54.3918 33.207 53.54C33.582 53.0198 33.7938 52.4694 33.8455 51.9488C34.2388 52.0113 34.6544 51.9501 35.0678 51.7638C36.0668 51.3134 36.8752 50.2099 37.0139 49.1194C38.0004 49.3382 39.0351 48.7257 39.6729 47.8403C40.2186 47.0829 40.4108 46.2716 40.2619 45.5688C40.3687 45.5376 40.476 45.4978 40.5835 45.4494C41.6133 44.985 42.4733 43.8 42.584 42.6928C42.6049 42.4846 42.5988 42.2844 42.5683 42.0941L43.0331 41.7643C43.4387 41.4746 43.8416 41.3453 44.3396 41.3453H45.4953V43.0887C45.4953 43.4445 45.7836 43.7327 46.1393 43.7327H52.077C52.4328 43.7327 52.721 43.4444 52.721 43.0887V26.9987C52.721 26.6429 52.4327 26.3547 52.077 26.3547L52.0766 26.3548ZM8.21764 42.4448H3.56788V27.6428H8.21764V42.4448ZM12.2308 43.6847L13.9794 41.939C14.0361 41.8821 14.1836 41.7343 14.4737 41.7343C14.5535 41.7343 14.644 41.7455 14.7466 41.7729C15.3792 41.9419 16.0321 42.5943 16.2019 43.2273C16.3279 43.697 16.1144 43.9171 16.0398 43.9918L14.2889 45.7427C13.8103 46.2208 13.012 45.7705 12.5922 45.351C12.2416 45.0007 11.7149 44.2016 12.2308 43.6847ZM15.4331 48.4783C15.0772 48.1224 14.5379 47.3153 15.0448 46.8084L15.1996 46.6536C15.1996 46.6536 15.2 46.6533 15.2002 46.6531L16.948 44.9052C16.948 44.9052 16.9482 44.9049 16.9485 44.9048L18.769 43.0843C18.9174 42.9359 19.0913 42.8772 19.2722 42.8772C19.7095 42.8772 20.1871 43.2207 20.4389 43.4725C20.7948 43.8284 21.3341 44.6355 20.8272 45.1424L17.1031 48.8664C16.5961 49.3735 15.7893 48.834 15.4333 48.4782L15.4331 48.4783ZM20.7965 51.1077C20.2899 51.6141 19.4835 51.0755 19.1277 50.7199C18.7144 50.3066 18.2696 49.5215 18.7383 49.0526L21.7376 46.0533C21.8858 45.9052 22.0596 45.8464 22.2404 45.8464C22.6768 45.8464 23.1535 46.1889 23.4048 46.4399C23.8193 46.8539 24.2653 47.6409 23.796 48.1112L23.2153 48.6913C23.2007 48.705 23.1859 48.7182 23.1715 48.7326L21.4232 50.4809C21.4196 50.4846 21.4163 50.4883 21.4128 50.492L20.7966 51.1075C20.7966 51.1075 20.7966 51.1075 20.7965 51.1077ZM26.1405 51.7015L24.3927 53.4493C23.8877 53.9545 23.0813 53.4156 22.7254 53.0602C22.3709 52.7061 21.8346 51.9052 22.3278 51.3985L24.1078 49.6204C24.2501 49.4905 24.4141 49.4374 24.5843 49.4374C25.0216 49.4374 25.4993 49.781 25.751 50.0328C26.1067 50.3884 26.6459 51.195 26.1405 51.7015ZM41.3022 42.5649C41.2371 43.2162 40.6654 43.9995 40.0538 44.2754C39.6642 44.4511 39.4728 44.322 39.406 44.2742C39.4059 44.2742 39.4058 44.274 39.4056 44.2739L33.1602 39.7123C32.8729 39.5027 32.4702 39.5653 32.2604 39.8526C32.0506 40.1399 32.1133 40.5428 32.4006 40.7526L38.646 45.3142C38.646 45.3142 38.647 45.3148 38.6476 45.3151C38.6481 45.3155 38.6486 45.3161 38.6493 45.3164C39.301 45.7863 38.9424 46.6508 38.6278 47.0876C38.298 47.5454 37.5753 48.1286 37.0388 47.7423L36.2045 47.1425L30.152 42.721C29.8648 42.5112 29.4618 42.5738 29.252 42.8611C29.0421 43.1483 29.1049 43.5513 29.3921 43.761L35.4487 48.1855C35.4487 48.1855 35.4495 48.1861 35.4499 48.1864C35.4509 48.187 35.4517 48.1879 35.4526 48.1885C35.5359 48.2485 35.7892 48.4305 35.7402 48.92C35.675 49.5714 35.1358 50.3205 34.5384 50.5899C34.0893 50.7922 33.8366 50.6102 33.7541 50.5509L33.036 50.0327L33.0325 50.0302L27.801 46.2108C27.5137 46.0009 27.1108 46.064 26.9011 46.3512C26.6914 46.6386 26.7542 47.0414 27.0415 47.2511L32.2759 51.0725C32.2759 51.0725 32.2766 51.0728 32.2769 51.073C32.2776 51.0736 32.2781 51.0741 32.2788 51.0745C32.8183 51.4639 32.5048 52.312 32.1623 52.787C31.8688 53.1943 31.1605 53.8545 30.5806 53.4369L27.6259 51.3119C27.6623 50.589 27.3341 49.794 26.6623 49.1222C26.2075 48.6672 25.696 48.3698 25.1888 48.2363C25.4584 47.3942 25.1534 46.3659 24.3156 45.529C23.7016 44.9156 22.985 44.5898 22.3146 44.5665C22.2914 43.895 21.9648 43.177 21.3499 42.5621C20.226 41.4379 18.7574 41.2748 17.8584 42.1739L17.3715 42.6608C17.0107 41.6723 16.0825 40.7968 15.0795 40.5287C14.3289 40.3283 13.6316 40.4933 13.1092 40.9906L12.7229 40.7166C12.1022 40.2733 11.4309 40.0578 10.6707 40.0578H9.50595V30.0304H14.8302C14.8618 30.0304 14.8935 30.0281 14.9247 30.0235L22.2912 28.9302C23.2751 28.7836 24.1758 29.0174 24.9664 29.6253L26.4092 30.7386L23.5132 32.949C22.2093 33.9461 22.4914 35.7302 23.4439 36.9771C24.397 38.2246 26.0444 38.9666 27.3495 37.9705L30.5783 35.5063C31.1807 35.0441 31.991 35.0464 32.5943 35.5114L37.9596 39.6496C37.9652 39.654 37.9709 39.6582 37.9767 39.6623L41.0101 41.8459C41.156 41.9508 41.3449 42.1392 41.3024 42.5651L41.3022 42.5649ZM44.3393 40.0575C43.5772 40.0575 42.9048 40.2729 42.2858 40.7151L41.9505 40.953C41.8913 40.8994 41.8289 40.848 41.7619 40.8L38.7378 38.6228L33.3808 34.491C32.308 33.664 30.8667 33.6612 29.7958 34.4827L26.5678 36.9465C25.805 37.5283 24.8604 36.7093 24.4675 36.1949C24.0747 35.6809 23.5334 34.5547 24.2951 33.9723L27.8578 31.2532C27.8578 31.2532 27.858 31.2529 27.8581 31.2529C27.8582 31.2529 30.014 29.6056 30.014 29.6056C30.8006 29.0046 31.6952 28.7742 32.6737 28.9208L40.0792 30.0232C40.1105 30.0279 40.1422 30.0302 40.174 30.0302H45.4953V40.0576H44.3396L44.3393 40.0575ZM51.4327 42.4448H46.7829V27.6428H51.4327V42.4448ZM30.218 21.4538C30.218 22.5974 29.3329 23.5589 28.1443 23.8187V24.3558C28.1443 24.7116 27.856 24.9998 27.5003 24.9998C27.1446 24.9998 26.8563 24.7115 26.8563 24.3558V23.8187C25.6678 23.5589 24.7826 22.5974 24.7826 21.4538C24.7826 21.098 25.0709 20.8098 25.4266 20.8098C25.7823 20.8098 26.0706 21.0981 26.0706 21.4538C26.0706 22.086 26.7119 22.6003 27.5003 22.6003C28.2887 22.6003 28.93 22.086 28.93 21.4538C28.93 20.7011 28.5407 20.5478 27.4284 20.3017C26.4828 20.0927 25.0537 19.7764 25.0537 18.0982C25.0537 17.0841 25.8187 16.2284 26.8563 15.973V15.4277C26.8563 15.072 27.1446 14.7837 27.5003 14.7837C27.856 14.7837 28.1443 15.072 28.1443 15.4277V15.9728C29.1836 16.2279 29.95 17.0838 29.95 18.0982C29.95 18.454 29.6617 18.7422 29.3061 18.7422C28.9504 18.7422 28.6621 18.4538 28.6621 18.0982C28.6621 17.6022 28.13 17.183 27.5004 17.183C26.8708 17.183 26.3417 17.6021 26.3417 18.0982C26.3417 18.6663 26.6162 18.803 27.7066 19.0441C28.7067 19.2654 30.218 19.5996 30.218 21.4538Z" fill="white"/>
</g>
<defs>
<clipPath id="clip0_87690_3948">
<rect width="55" height="55" fill="white" transform="translate(0 0.369141)"/>
</clipPath>
</defs>
</svg>
