<svg width="52" height="53" viewBox="0 0 52 53" fill="none" xmlns="http://www.w3.org/2000/svg">
<g clip-path="url(#clip0_87690_3955)">
<path d="M3.03333 34.1691C3.48311 34.1699 3.92733 34.0698 4.33333 33.8762V48.4691C4.33395 49.2754 4.58442 50.0616 5.05028 50.7197C5.51614 51.3777 6.17449 51.8752 6.93473 52.1436C7.69497 52.4121 8.51972 52.4383 9.29549 52.2187C10.0713 51.9992 10.7599 51.5446 11.2667 50.9175C11.7734 51.5446 12.4621 51.9992 13.2378 52.2187C14.0136 52.4383 14.8384 52.4121 15.5986 52.1436C16.3588 51.8752 17.0172 51.3777 17.4831 50.7197C17.9489 50.0616 18.1994 49.2754 18.2 48.4691V33.8762C18.6623 34.0955 19.1726 34.1943 19.6834 34.1634C20.1942 34.1324 20.6888 33.9728 21.1213 33.6993C21.5538 33.4258 21.91 33.0473 22.1569 32.5991C22.4038 32.1509 22.5333 31.6475 22.5333 31.1358V21.1691C22.53 19.1303 21.8085 17.1578 20.4956 15.598C19.1827 14.0381 17.3622 12.9906 15.3539 12.6394C15.9768 12.0731 16.4746 11.383 16.8155 10.6132C17.1563 9.84345 17.3327 9.011 17.3333 8.16914V6.43581C17.3333 4.82683 16.6942 3.28375 15.5564 2.14603C14.4187 1.00831 12.8756 0.369141 11.2667 0.369141C9.65769 0.369141 8.11461 1.00831 6.97689 2.14603C5.83917 3.28375 5.2 4.82683 5.2 6.43581V8.16914C5.20063 9.011 5.37702 9.84345 5.71788 10.6132C6.05873 11.383 6.55655 12.0731 7.17947 12.6394C5.1711 12.9906 3.35065 14.0381 2.03773 15.598C0.724805 17.1578 0.00333983 19.1303 0 21.1691L0 31.1358C0 31.9403 0.319582 32.7118 0.888443 33.2807C1.4573 33.8496 2.22884 34.1691 3.03333 34.1691ZM6.93333 8.16914V6.43581C6.93333 5.28654 7.38988 4.18434 8.20254 3.37168C9.01519 2.55902 10.1174 2.10247 11.2667 2.10247C12.4159 2.10247 13.5181 2.55902 14.3308 3.37168C15.1435 4.18434 15.6 5.28654 15.6 6.43581V8.16914C15.6 9.31841 15.1435 10.4206 14.3308 11.2333C13.5181 12.0459 12.4159 12.5025 11.2667 12.5025C10.1174 12.5025 9.01519 12.0459 8.20254 11.2333C7.38988 10.4206 6.93333 9.31841 6.93333 8.16914ZM10.2934 17.7025H12.2391L12.9922 23.4935L11.2537 24.6358L9.53333 23.4831L10.2934 17.7025ZM9.7734 14.2358H12.753L12.3197 15.9691H10.2102L9.7734 14.2358ZM1.73333 21.1691C1.73566 19.4468 2.37817 17.7868 3.53601 16.5118C4.69385 15.2367 6.28434 14.4375 7.99847 14.2696L8.6528 16.8869L7.81387 23.2621C7.77224 23.5851 7.82196 23.9132 7.95737 24.2093C8.09279 24.5054 8.30849 24.7577 8.58 24.9374L10.2917 26.0745C10.5794 26.2674 10.9181 26.3704 11.2645 26.3704C11.6109 26.3704 11.9496 26.2674 12.2373 26.0745L13.9533 24.9365C14.2256 24.7563 14.4418 24.5032 14.5773 24.2061C14.7127 23.909 14.762 23.5798 14.7195 23.2561L13.8814 16.8869L14.5357 14.2696C16.2497 14.4377 17.84 15.237 18.9977 16.512C20.1553 17.7871 20.7977 19.4469 20.8 21.1691V31.1358C20.8 31.4806 20.663 31.8113 20.4192 32.055C20.1754 32.2988 19.8448 32.4358 19.5 32.4358C19.1552 32.4358 18.8246 32.2988 18.5808 32.055C18.337 31.8113 18.2 31.4806 18.2 31.1358V21.1691C18.2 20.9393 18.1087 20.7188 17.9462 20.5563C17.7836 20.3938 17.5632 20.3025 17.3333 20.3025C17.1035 20.3025 16.883 20.3938 16.7205 20.5563C16.558 20.7188 16.4667 20.9393 16.4667 21.1691V48.4691C16.4667 49.0438 16.2384 49.5949 15.8321 50.0012C15.4257 50.4075 14.8746 50.6358 14.3 50.6358C13.7254 50.6358 13.1743 50.4075 12.7679 50.0012C12.3616 49.5949 12.1333 49.0438 12.1333 48.4691V35.0358C12.1333 34.806 12.042 34.5855 11.8795 34.423C11.717 34.2604 11.4965 34.1691 11.2667 34.1691C11.0368 34.1691 10.8164 34.2604 10.6538 34.423C10.4913 34.5855 10.4 34.806 10.4 35.0358V48.4691C10.4 49.0438 10.1717 49.5949 9.7654 50.0012C9.35907 50.4075 8.80797 50.6358 8.23333 50.6358C7.6587 50.6358 7.1076 50.4075 6.70127 50.0012C6.29494 49.5949 6.06667 49.0438 6.06667 48.4691V21.1691C6.06667 20.9393 5.97536 20.7188 5.81283 20.5563C5.65029 20.3938 5.42985 20.3025 5.2 20.3025C4.97015 20.3025 4.74971 20.3938 4.58717 20.5563C4.42464 20.7188 4.33333 20.9393 4.33333 21.1691V31.1358C4.33333 31.4806 4.19637 31.8113 3.95257 32.055C3.70878 32.2988 3.37811 32.4358 3.03333 32.4358C2.68855 32.4358 2.35789 32.2988 2.11409 32.055C1.8703 31.8113 1.73333 31.4806 1.73333 31.1358V21.1691Z" fill="white"/>
<path d="M38.1331 11.6357C37.1046 11.6357 36.0993 11.9407 35.2441 12.5121C34.389 13.0835 33.7225 13.8956 33.3289 14.8458C32.9354 15.796 32.8324 16.8415 33.033 17.8502C33.2337 18.8589 33.7289 19.7855 34.4562 20.5127C35.1834 21.2399 36.1099 21.7352 37.1186 21.9358C38.1273 22.1365 39.1729 22.0335 40.1231 21.6399C41.0732 21.2463 41.8854 20.5798 42.4568 19.7247C43.0281 18.8696 43.3331 17.8642 43.3331 16.8357C43.3317 15.457 42.7834 14.1352 41.8085 13.1603C40.8337 12.1854 39.5118 11.6371 38.1331 11.6357ZM38.1331 20.3024C37.4475 20.3024 36.7772 20.0991 36.2071 19.7182C35.637 19.3372 35.1927 18.7958 34.9303 18.1624C34.6679 17.5289 34.5993 16.8319 34.7331 16.1594C34.8668 15.487 35.197 14.8693 35.6818 14.3844C36.1666 13.8996 36.7843 13.5694 37.4568 13.4357C38.1293 13.3019 38.8263 13.3706 39.4597 13.633C40.0932 13.8953 40.6346 14.3397 41.0155 14.9098C41.3965 15.4799 41.5998 16.1501 41.5998 16.8357C41.5998 17.7552 41.2345 18.6369 40.5844 19.287C39.9343 19.9372 39.0525 20.3024 38.1331 20.3024Z" fill="white"/>
<path d="M50.2181 23.1318L48.4934 22.1784C48.5168 21.5224 48.5333 20.8559 48.5333 20.166C48.5333 9.52943 41.5367 2.68363 39.3925 0.838499C39.0434 0.534586 38.5961 0.367188 38.1333 0.367188C37.6704 0.367187 37.2231 0.534586 36.874 0.838499C34.7299 2.68363 27.7333 9.52943 27.7333 20.1652C27.7333 20.8585 27.7497 21.5215 27.7731 22.1776L26.0459 23.1309C25.5057 23.4331 25.056 23.8741 24.7432 24.4083C24.4304 24.9424 24.2659 25.5504 24.2666 26.1694V32.4354C24.2666 33.125 24.5405 33.7863 25.0281 34.2739C25.5157 34.7615 26.177 35.0354 26.8666 35.0354H30.4199C30.5389 35.2553 30.6697 35.4685 30.8117 35.6742C31.0852 36.053 31.4567 36.3502 31.8863 36.5339L31.5717 37.7932C31.4994 38.0826 31.4939 38.3847 31.5556 38.6765C31.6173 38.9684 31.7447 39.2424 31.928 39.4777C32.1113 39.713 32.3458 39.9036 32.6136 40.0349C32.8815 40.1661 33.1758 40.2347 33.4741 40.2354H33.7999V44.6398C32.8899 44.7932 32.0376 45.1876 31.3317 45.7821C30.5441 45.481 29.6951 45.3757 28.8578 45.4753C28.0205 45.5749 27.2199 45.8764 26.5249 46.3538C25.8299 46.8313 25.2612 47.4704 24.8678 48.2162C24.4745 48.962 24.2681 49.7922 24.2666 50.6354C24.2666 51.0951 24.4492 51.536 24.7743 51.8611C25.0993 52.1861 25.5402 52.3688 25.9999 52.3688H50.2666C50.7263 52.3688 51.1672 52.1861 51.4923 51.8611C51.8173 51.536 51.9999 51.0951 51.9999 50.6354C51.9984 49.7922 51.7921 48.962 51.3987 48.2162C51.0053 47.4704 50.4367 46.8313 49.7417 46.3538C49.0466 45.8764 48.2461 45.5749 47.4088 45.4753C46.5714 45.3757 45.7225 45.481 44.9349 45.7821C44.229 45.1876 43.3766 44.7932 42.4666 44.6398V40.2354H42.7925C43.0911 40.2354 43.3857 40.1673 43.654 40.0363C43.9224 39.9054 44.1574 39.715 44.3411 39.4797C44.5249 39.2443 44.6527 38.9702 44.7147 38.6782C44.7767 38.3861 44.7714 38.0837 44.6991 37.794L44.3845 36.5339C44.8142 36.3503 45.1858 36.0531 45.4592 35.6742C45.6012 35.4685 45.732 35.2553 45.8509 35.0354H49.3999C50.0895 35.0354 50.7508 34.7615 51.2384 34.2739C51.726 33.7863 51.9999 33.125 51.9999 32.4354V26.1694C52.0003 25.5503 51.8353 24.9423 51.522 24.4083C51.2088 23.8743 50.7586 23.4336 50.2181 23.1318ZM38.005 2.15237C38.0401 2.11908 38.0866 2.10053 38.135 2.10053C38.1834 2.10053 38.2299 2.11908 38.265 2.15237C40.245 3.89199 41.9513 5.92026 43.3263 8.16877H32.9402C34.3163 5.92002 36.0238 3.89173 38.005 2.15237ZM26.8666 33.3021C26.6367 33.3021 26.4163 33.2108 26.2538 33.0483C26.0912 32.8857 25.9999 32.6653 25.9999 32.4354V26.1694C25.9994 25.8599 26.0813 25.5559 26.2373 25.2885C26.3933 25.0212 26.6177 24.8003 26.8874 24.6484L27.8745 24.1024C28.0448 27.2346 28.6386 30.3294 29.6399 33.3021H26.8666ZM44.1349 47.4019C44.2647 47.5397 44.436 47.6313 44.6227 47.6626C44.8094 47.6939 45.0013 47.6632 45.1689 47.5752C45.6975 47.2962 46.2892 47.1582 46.8867 47.1746C47.4843 47.191 48.0675 47.3613 48.58 47.6689C49.0925 47.9766 49.517 48.4113 49.8125 48.9309C50.1079 49.4506 50.2643 50.0377 50.2666 50.6354H25.9999C26.0015 50.0373 26.1573 49.4497 26.4525 48.9294C26.7476 48.4092 27.172 47.9739 27.6847 47.6657C28.1973 47.3576 28.7808 47.1869 29.3787 47.1703C29.9766 47.1537 30.5687 47.2917 31.0977 47.5709C31.2653 47.6589 31.4571 47.6896 31.6438 47.6583C31.8305 47.627 32.0018 47.5354 32.1316 47.3976C32.4565 47.051 32.8492 46.775 33.2853 46.5865C33.7214 46.3981 34.1916 46.3013 34.6666 46.3021C34.8965 46.3021 35.1169 46.2108 35.2794 46.0483C35.442 45.8857 35.5333 45.6653 35.5333 45.4354V40.2354H40.7333V45.4354C40.7333 45.6653 40.8246 45.8857 40.9871 46.0483C41.1496 46.2108 41.3701 46.3021 41.5999 46.3021C42.0753 46.3018 42.5457 46.3993 42.9818 46.5885C43.4179 46.7777 43.8104 47.0546 44.1349 47.4019ZM42.9762 38.4154C42.9545 38.4432 42.9265 38.4655 42.8946 38.4805C42.8627 38.4956 42.8277 38.503 42.7925 38.5021H33.4741C33.4388 38.503 33.4038 38.4956 33.3719 38.4805C33.34 38.4655 33.3121 38.4432 33.2903 38.4154C33.2685 38.3878 33.2533 38.3556 33.2459 38.3212C33.2385 38.2867 33.2392 38.2511 33.2479 38.217L33.6093 36.7688H42.6573L43.0187 38.2144C43.0279 38.2489 43.0289 38.285 43.0215 38.32C43.0141 38.3549 42.9986 38.3876 42.9762 38.4154ZM44.0439 34.6758C43.9637 34.789 43.857 34.881 43.7332 34.9437C43.6093 35.0063 43.4721 35.0378 43.3333 35.0354H32.9333C32.7948 35.0369 32.658 35.0046 32.5348 34.9413C32.4116 34.878 32.3056 34.7857 32.2261 34.6723C31.1133 33.1088 29.4666 27.9548 29.4666 20.1652C29.4754 16.5928 30.337 13.0742 31.9799 9.9021H44.2866C45.9295 13.0742 46.7912 16.5928 46.7999 20.1652C46.7999 27.9548 45.1533 33.1088 44.0439 34.6723V34.6758ZM50.2666 32.4354C50.2666 32.6653 50.1753 32.8857 50.0128 33.0483C49.8502 33.2108 49.6298 33.3021 49.3999 33.3021H46.6266C47.6273 30.3293 48.2206 27.2346 48.3903 24.1024L49.3748 24.6467C49.6455 24.7982 49.8708 25.0193 50.0275 25.2869C50.1843 25.5546 50.2668 25.8592 50.2666 26.1694V32.4354Z" fill="white"/>
</g>
<defs>
<clipPath id="clip0_87690_3955">
<rect width="52" height="52" fill="white" transform="translate(0 0.369141)"/>
</clipPath>
</defs>
</svg>
