<svg width="44" height="53" viewBox="0 0 44 53" fill="none" xmlns="http://www.w3.org/2000/svg">
<path d="M6.58977 9.91148C6.58977 9.54945 6.88398 9.25523 7.24602 9.25523H24.2265C24.5885 9.25523 24.8827 9.54945 24.8827 9.91148C24.8827 10.2735 24.5885 10.5677 24.2265 10.5677H7.24602C6.88398 10.5677 6.58977 10.2735 6.58977 9.91148ZM7.24602 17.3971H30.2137C30.5757 17.3971 30.8699 17.1029 30.8699 16.7409C30.8699 16.3788 30.5757 16.0846 30.2137 16.0846H7.24602C6.88398 16.0846 6.58977 16.3788 6.58977 16.7409C6.58977 17.1029 6.88398 17.3971 7.24602 17.3971ZM43.4371 49.7579C43.2041 50.7937 42.5435 51.6916 41.6248 52.221C41.0418 52.5579 40.3812 52.7307 39.7173 52.7307C39.3366 52.7307 38.9549 52.6738 38.5852 52.559C37.6632 52.2713 36.937 51.6534 36.5399 50.8188L33.799 45.0471H1.13086C0.768828 45.0471 0.474609 44.7529 0.474609 44.3909V0.666016C0.474609 0.303984 0.768828 0.00976562 1.13086 0.00976562H29.191V0.0108594C29.3616 0.0108594 29.5301 0.0764844 29.6548 0.201172L36.3923 6.93867C36.518 7.06445 36.5826 7.2318 36.5826 7.40242H36.5837V20.9835C39.1157 23.1601 40.7213 26.3845 40.7213 29.9774C40.7213 33.3473 39.3093 36.3923 37.0452 38.5535L42.9515 47.1154C43.4776 47.8777 43.6493 48.8151 43.4371 49.7579ZM28.864 19.4315C23.0485 19.4315 18.318 24.163 18.318 29.9774C18.318 35.7918 23.0496 40.5234 28.864 40.5234C34.6784 40.5234 39.4099 35.7918 39.4099 29.9774C39.4099 24.163 34.6795 19.4315 28.864 19.4315ZM29.8473 6.74727H34.3437L29.8473 2.25086V6.74727ZM33.1766 43.7335L32.0665 41.3973C31.0471 41.6838 29.973 41.837 28.864 41.837C25.3607 41.837 22.2074 40.309 20.0341 37.8852H7.24602C6.88398 37.8852 6.58977 37.591 6.58977 37.229C6.58977 36.867 6.88398 36.5727 7.24602 36.5727H19.0115C17.933 34.9671 17.2374 33.0837 17.0537 31.0559H7.24602C6.88398 31.0559 6.58977 30.7616 6.58977 30.3996C6.58977 30.0376 6.88398 29.7434 7.24602 29.7434H17.0077C17.0471 27.7451 17.583 25.8671 18.4963 24.2265H7.24602C6.88398 24.2265 6.58977 23.9323 6.58977 23.5702C6.58977 23.2082 6.88398 22.914 7.24602 22.914H19.344C21.5074 20.0068 24.9691 18.1201 28.8629 18.1201C31.2221 18.1201 33.4216 18.8124 35.2712 20.0046V8.05977H29.1899C28.8279 8.05977 28.5337 7.76555 28.5337 7.40352V1.32227H1.78711V43.7335H33.1766ZM41.8719 47.8624L36.0423 39.411C35.2121 40.0443 34.2966 40.5704 33.3155 40.9696L37.7255 50.2566C37.9629 50.7565 38.407 51.1295 38.9746 51.3066C39.6298 51.5101 40.3746 51.428 40.9674 51.0857C41.5602 50.7434 42.0043 50.1396 42.1552 49.4702C42.2876 48.8884 42.1859 48.3174 41.8719 47.8624ZM28.864 22.9665C26.5595 22.9665 24.6859 24.8412 24.6859 27.1446C24.6859 27.5066 24.9801 27.8009 25.3421 27.8009C25.7041 27.8009 25.9984 27.5066 25.9984 27.1446C25.9984 25.5641 27.2835 24.279 28.864 24.279C30.4445 24.279 31.7296 25.5641 31.7296 27.1446C31.7296 28.3784 30.9443 29.471 29.7751 29.8626C28.8224 30.182 28.2077 31.0362 28.2077 32.0402V33.6273C28.2077 33.9893 28.502 34.2835 28.864 34.2835C29.226 34.2835 29.5202 33.9893 29.5202 33.6273V32.0402C29.5202 31.6027 29.7773 31.2451 30.1918 31.1062C31.8969 30.5352 33.0421 28.9427 33.0421 27.1435C33.0421 24.8412 31.1674 22.9665 28.864 22.9665ZM28.864 35.666C28.502 35.666 28.2077 35.9602 28.2077 36.3223V36.3343C28.2077 36.6963 28.502 36.9905 28.864 36.9905C29.226 36.9905 29.5202 36.6963 29.5202 36.3343V36.3223C29.5202 35.9591 29.226 35.666 28.864 35.666Z" fill="white"/>
</svg>
